<?xml version="1.0" encoding="utf8" standalone="no"?>
<svg viewBox="0 0 182.56296 94.2173" xmlns="http://www.w3.org/2000/svg">
<g transform="translate(-20.6584,26.8019)">
<path d="m134.4047,67.2089c-2.5667-.2464-4.7799-.6183-4.9181-.8264s-.6304-1.0593-1.0937-1.8916c-.601-1.0796-1.451-1.4387-2.9664-1.2531-4.2277.5179-10.0917-.6536-10.5535-2.1084-.5443-1.7149-2.6309-14.359-2.6488-16.0502-.008-.6889 1.1785-2.6789 2.635-4.4222s2.6482-3.8054 2.6482-4.5823 1.5322-2.9891 3.4049-4.916 3.4048-3.7598 3.4048-4.0732c0-1.1214-2.7797-3.0544-6.0531-4.2093-1.8313-.6461-3.8573-1.6522-4.5022-2.2357-3.2704-2.9592-17.524-7.1967-31.0595-9.2336-13.8565-2.0853-32.0469-.6536-52.7751,4.1536-5.0978,1.1823-9.2688,2.0178-9.2688,1.8567 0-.9432 17.877-7.2706 27.2027-9.628 15.7321-3.977 30.7691-5.835 52.2437-6.4554 15.9201-.46 20.6587-.8354 23.0016-1.8225 8.4976-3.58 28.1058-5.4763 32.2326-3.1172 1.0404.5947 2.8363,1.0934 3.991,1.1081 2.6371.0337 3.1942-1.3534 3.8623-9.6168 .5652-6.9908 1.0949-8.693 3.6808-11.8293 1.5752-1.9104 2.4662-2.2402 7.2336-2.6772 6.1645-.565 14.898.2217 21.9757,1.9797 3.8577.9582 5.0715,1.6339 6.165,3.432 .6375,1.0483.9581,1.6429.9733,2.2323s-.2748,1.1736-.8586,2.2011c-1.3682,2.4079-3.2576,3.1793-10.8264,4.4201-5.8207.9542-10.1711,2.5943-12.4439,4.6914-.8769.8091-2.5498,3.8443-3.7174,6.745-1.9931,4.951-3.4415,6.8114-10.2795,13.2037-1.4911,1.3939-2.1409,3.0022-2.6651,6.596l-.6932,4.7526 3.9703,4.6022 3.9703,4.6022-1.3912,3.7208c-2.3208,6.207-3.1497,7.579-5.3728,8.8922-2.9333,1.7327-4.7369,1.5812-7.0855-.5955-2.1941-2.0334-2.3356-2.5106-1.2454-4.1976 .489-.7566.7373-.8197.745-.1892 .0184,1.5016 1.3748,1.0972 1.9032-.5675 .2642-.8323.8179-1.5133 1.2306-1.5133s.5222.3691.2434.8203c-.3199.5176.1134.727 1.1741.5675 .9902-.1489 2.3463-1.4065 3.2997-3.0599 1.5268-2.6479 1.5453-2.8806.3256-4.1034s-1.3351-1.1855-2.0445.6803c-1.7988,4.7312-10.6602,5.1356-10.6602.4865 0-.9308.3787-1.2516 1.1349-.9614 .7508.2881 1.1349-.0272 1.1349-.9317 0-1.0634.2018-1.1655.908-.4593 1.3202,1.3202 2.3796,1.1187 3.4933-.6646 1.3007-2.0827.1865-3.3953-3.3722-3.9728-1.5015-.2437-3.2961-.9554-3.9881-1.5816-1.8427-1.6676-4.6072-.7207-4.6072,1.5781 0,2.7733-1.9925,6.1009-7.2969,12.1862-6.8542,7.8633-7.3456,8.7507-6.8579,12.3861 .549,4.0928 1.4579,4.9319 3.6666,3.3848 .9599-.6724 2.3506-1.2225 3.0903-1.2225 1.5247,0 4.3714,2.5622 4.3714,3.9345 0,.7062-.2018.7062-.908,0-1.0534-1.0534-3.3595-1.2041-3.9445-.2576-.5652.9144 1.2711,4.633 2.2913,4.6402 1.3122.009 4.831,3.0263 4.831,4.1422 0,.55-.7661.9811-1.7024.958s-2.2132.1295-2.8374.339-3.235.1793-5.8017-.0672zm-10.478-13.5c-2.2434-5.378-2.2502-5.1411.2589-8.9292 3.1277-4.7219 3.1829-6.2955.1451-4.1324-3.3229,2.3661-4.5546,4.5171-4.5431,7.9335 .0167,4.9258.6808,6.4522 2.8071,6.4522 1.5006,0 1.7718-.2697 1.332-1.3241z"/>
</g>
</svg>
