<?xml version="1.0" encoding="utf8" standalone="no"?>
<!DOCTYPE svg PUBLIC "-//W3C//DTD SVG 1.1//EN" "http://www.w3.org/Graphics/SVG/1.1/DTD/svg11.dtd" [
<!ENTITY ns_svg "http://www.w3.org/2000/svg">
	<!ENTITY ns_xlink "http://www.w3.org/1999/xlink">
]>
<svg enable-background="new 0 0 241.495 485.931" height="485.93" viewBox="0 0 241.495 485.931" width="241.5" xml:space="preserve" xmlns="http://www.w3.org/2000/svg">
<g fill-rule="evenodd">
	<path d="m101.84,7.598c-5.176,2.747-6.921,12.392.724,13.748-2.826,3.172-6.831-1.196-7.236-4.341-.581-4.549 3.151-8.42 6.516-9.407z" fill="#fff"></path>
	<path d="m111.25,20.261c-3.994,2.88-9.929,3.819-9.769,10.854h-2.532c.323-6.847 6.312-13.22 12.302-10.854z" fill="#fff"></path>
	<path d="m118.48,36.903c1.41-.083 1.876.777 2.895,1.085 .313,1.792.181,3.599.361,5.789-1.176-.271-2.239-.655-3.256-1.085v-5.789z" fill="#fff"></path>
	<path d="m122.1,38.35c1.14-.175.819,1.111 2.171.724-.648.954.958,4.643-.724,5.427-2.19-.647-1.04-3.264-1.45-6.151z" fill="#fff"></path>
	<path d="m125.36,39.436c.92.664 1.535,5.711-.361,5.789 .17-1.877-.39-4.491.36-5.789z" fill="#fff"></path>
	<path d="m126.8,41.245c1.335.274 1.965,4.148.724,4.704-1.55-.249-.32-3.286-.72-4.704z" fill="#fff"></path>
	<path d="m84.837,43.416c.711.164.65,2.538-.724,1.809-.31-1.155.57-1.12.724-1.809z" fill="#fff"></path>
	<path d="m118.85,47.033c1.141.713 2.01.894 2.894,1.085v1.809c-.654.611-1.827-.299-2.894-.362 .29-1.297-.82-1.75 0-2.532z" fill="#fff"></path>
	<path d="m122.46,48.48c.9-.056 1.12.568 1.81.724 .048.892.055,1.743-.362,2.171-1.28-.37-2.19-1.509-1.45-2.895z" fill="#fff"></path>
	<path d="m75.792,53.184c.106.337.979.337 1.085,0 .914.684-.333,1.268.362,2.17-2.107-.304-2.401-2.422-2.171-5.065 1.482.901 1.644-.455 2.171-1.447 1.314.343.808,3.53 0,3.98-.521-.082-.126-1.08-.724-1.085-.982-.259.259,1.706-.723,1.447z" fill="#fff"></path>
	<path d="m125,49.566c1.531.048 1.318,2.056 1.085,2.895-1.34.019-1.04-1.61-1.08-2.895z" fill="#fff"></path>
	<path d="m126.8,49.928c1.104.119 1.577,2.74 1.086,3.256-1.32-.126-.56-2.334-1.09-3.256z" fill="#fff"></path>
	<path d="m85.922,56.078c.751-.373.188,3.659.362,5.065-.751.374-.187-3.659-.362-5.065z"></path>
	<path d="m168.41,57.164c1.077,2.299 1.496,5.257 1.809,8.321-1.07-2.31-1.34-5.409-1.81-8.321z"></path>
	<path d="m81.581,57.887c.76-.264.181,3.908.362,5.427-.761.264-.181-3.908-.362-5.427z"></path>
	<path d="m77.963,57.887c.82,1.431.534,3.062.362,4.703-.832-.856-.13-3.247-.362-4.703z"></path>
	<path d="m126.8,62.229c.693-.786.229,2.646.362,3.618-.69.786-.22-2.646-.36-3.618z"></path>
	<path d="m77.963,63.314c.421-.059.644.08.724.362 0,14.238.147,28.013.724,40.521-1.656-.419-.726-2.487-.724-3.618 .009-5.157-.646-10.867-.724-16.643-.104-7.709.554-15.034 0-20.623z"></path>
	<path d="m164.79,63.314c.322.161.647.318.724.724 .082,1.025-.006,5.677-.361,2.895-.1-1.226-.57-2.079-.36-3.619z"></path>
	<path d="m117.4,66.57c1.488.169-.284-.91.724-1.447 .791.053.777.912.724,1.809-2.173-.041.308.708-.724,1.809-.63-.333-.8-1.131-.72-2.171z" fill="#fff"></path>
	<path d="m170.22,65.847c1.016,3.447 1.732,7.192 2.171,11.216-1.05-3.417-1.85-7.078-2.17-11.216z"></path>
	<path d="m168.05,66.932c1.74,2.97.05,4.078 0,0z"></path>
	<path d="m102.2,76.339c-1.171.206-1.82-.11-2.171-.724-1.98,2.361-7.009-1.817-5.065-5.789 4.192-5.076 11.215.397 7.235,6.513zm-6.147-6.151c-1.951,5.89 7.199,7.073 5.789,0-2.16-1.745-3.436-1.499-5.787,0z"></path>
	<path d="m118.12,69.103c.785-.061.164,1.283.362,1.809-1.65.026-.72-1.064-.36-1.809z" fill="#fff"></path>
	<path d="m76.154,70.188c.844,6.633.121,14.833.362,22.069-1.291-6.425-.281-13.686-.362-22.069z"></path>
	<path d="m125,73.806c.693-.786.229,2.646.361,3.618-1.33-.744-.02-1.886-.36-3.618z"></path>
	<path d="m138.38,79.233c-3.069,1.512-6.954.722-9.406.724 2.64-1.254 6.97-.985 9.41-.724z" fill="#fff"></path>
	<path d="m159.37,79.595c-4.129,12.47-8.56,22.967-13.387,35.094 .497-4.939 2.835-9.636 4.704-14.472 1.844-4.772 3.502-9.801 5.427-14.472 .85-2.078 1.85-4.388 3.26-6.153z" fill="#fff"></path>
	<path d="m81.943,81.042c.837,1.454.125,4.458.362,6.512-.811-1.493-.562-5.19-.362-6.512z"></path>
	<path d="m106.18,84.66c1.498-.051.376,2.518.724,3.618-.54-.899-.69-2.196-.72-3.618z"></path>
	<path d="m81.943,87.916c.655,1.618.445,4.424.362,5.789-.566-1.837-.869-4.849-.362-5.789z"></path>
	<path d="m119.93,92.62c.001-1.326 1.693-.96 1.085-2.895 1.215.231 1.16,1.735 1.085,3.256-1.4-.241-1.28-.001-2.17-.361z" fill="#fff"></path>
	<path d="m122.83,90.449c1.442.246 1.212,2.164 1.447,3.618-2.25.089-.84-1.743-1.45-3.618z" fill="#fff"></path>
	<path d="m125,91.534h1.085c-.098,1.229.28,2.933-.361,3.618-1.26-.186-.53-2.364-.72-3.618z" fill="#fff"></path>
	<path d="m75.792,95.514c1.631,1.143.283,5.265.724,7.598-1.31-1.46-.498-5.048-.724-7.596z"></path>
	<path d="m86.284,96.961c.393.089.246.72.724.724 .132,5.935-.564,2.144-.724-.724z"></path>
	<path d="m153.22,97.323c1.362.342.662,3.096-.724,2.895 .85-1.128.39-1.688.72-2.897z" fill="#fff"></path>
	<path d="m109.8,121.56c-.004-.85-.987.132-.724.724-.816-.27-.141-2.029-.362-2.894 1.917,2.636.783-5.861 1.085-8.321 2.593-.231-.747,3.336 1.447,3.618-1.757,3.089.187,8.513-.724,12.301-1.48-.34-.49-5.05-.73-5.43z" fill="#fff"></path>
	<path d="m137.3,112.88c-4.053,2.459-4.067,8.958-8.321,11.216 .88-3.88 3.03-12.9 8.32-11.22z" fill="#fff"></path>
	<path d="m138.02,113.24c2.634.864 4.886,2.109 7.598,2.895-1.761,2.219-3.726,4.234-5.065,6.874-1.924-1.212-3.896-2.375-6.512-2.895 .04-3.57 3.29-3.94 3.97-6.88zm1.09,7.6c-.088-1.479-1.884-1.251-2.895-1.809 .08,1.48 1.88,1.25 2.89,1.81z" fill="#fff"></path>
	<path d="m129.34,115.05c.946-.102 1.557.132 1.447,1.085-.68.71-1.75.21-1.45-1.09z" fill="#fff"></path>
	<path d="m127.89,116.5c1.5-.415 1.409.761 2.532.724-.522.563-1.457.714-1.086,2.171-1.022.299-.937-.51-1.809-.362-.28-1.25.55-1.39.37-2.53z" fill="#fff"></path>
	<path d="m149.24,117.22c-2.597,2.334-6.288,6.417-7.236,11.577-.892.048-1.743.055-2.171-.362 2.01-4.62 4.21-12.09 9.41-11.22z" fill="#fff"></path>
	<path d="m149.96,117.94c.3,1.594 1.557,3.042.724,4.703-1.801-1.253-1.683,2.043-3.98,1.447 .24,2.772-1.548,3.518-2.17,5.427-.291-.191-.588-.377-1.086-.362 .21-4.28 3.87-8.18 6.52-11.22z" fill="#fff"></path>
	<path d="m136.21,119.03c1.011.557 2.807.33 2.895,1.809-1-.56-2.8-.33-2.89-1.81z"></path>
	<path d="m126.8,119.39c.9-.056 1.12.568 1.809.723 .057.9-.568,1.12-.723,1.809-.291-.191-.588-.377-1.086-.362v-2.17z" fill="#fff"></path>
	<path d="m138.74,128.8c-2.949-1.273-8.533-.476-12.663-1.447 2.305-1.434 5.191-2.285 6.874-4.341 3.87,0 5.46,2.26 5.79,5.79z" fill="#fff"></path>
	<path d="m152.85,124.82c1.573,2.663-2.045,6.064-2.894,8.683-3.04-3.22 1.76-6.21 2.89-8.68z" fill="#fff"></path>
	<path d="m147.43,125.9c1.352-.387 1.031.898 2.171.724 .269,1.492-1.866,2.451-1.085,3.256-.875,1.198-.829-1.554-2.171-1.085 .44-.88.89-1.76 1.08-2.9z" fill="#fff"></path>
	<path d="m128.98,134.23c-1.39-3.89.94-3.31 0,0z"></path>
	<path d="m133.32,130.97c.42-.059.644.08.724.362 .557,15.518.157,33.719.361,53.184 .167,15.91.557,34.427.362,53.184 .016.925-.27.441-.724.362 .201-30.341-.389-73.146-.724-106.01v-1.07z"></path>
	<path d="m136.94,131.33c.421-.059.645.08.724.362 .77,37.327.981,66.54 1.086,106.73-1.468-22.687-.69-54.008-1.447-78.147-.32-10.14.53-20.57-.36-28.94z"></path>
	<path d="m140.55,131.33c.322.16.647.318.724.724 .001,33.355.866,70.102.362,106.37-1.38-33.08-.57-71.93-1.08-107.09z"></path>
	<path d="m143.09,131.69c.584-.102.622.342 1.085.362 .178,20.384-.239,38.496 0,57.525 .203,16.181.596,29.633 0,47.757-1.334-14.062-.621-36.83-.724-53.907-.098-16.405-.453-30.646-.361-50.651-.01-.36-.01-.72-.01-1.09z"></path>
	<path d="m115.23,133.14c1.408,3.32.672,9.995.724,12.663-.9-4.3-.03-8.15-.72-12.66z"></path>
	<path d="m122.83,134.59c1.49,5.508.365,15.136.724,22.793-1.09-6.52-.53-13.6-.72-22.79z"></path>
	<path d="m92.435,135.31c-2.13,1.034-2.985.277-5.789,1.085 .967-1.18 4.092-1.82 5.789-1.09z"></path>
	<path d="m56.979,136.4c.769-.152.175,4.156.362,5.789-.769.15-.176-4.16-.362-5.79z"></path>
	<path d="m61.32,141.1c.642-.965.264,2.12.362,2.894-.641.97-.264-2.11-.362-2.89z"></path>
	<path d="m56.979,143.27c.712-.688.215,2.902.362,3.979-.713.69-.216-2.9-.362-3.98z"></path>
	<path d="m97.138,150.14c-2.258-.642-4.224-4.187-6.512-2.533 1.238-3.23 5.991.46 6.512,2.53z"></path>
	<path d="m90.264,147.25c-.491,1.077-1.633,1.502-2.533,2.171-.518,1.932.952,4.383-1.085,6.15 .553-3.12-.995-7.96 3.618-8.32z"></path>
	<path d="m56.979,147.97c1.221,3.245.003,7.089.724,12.301-1.664-2.67-.26-8.42-.724-12.3z"></path>
	<path d="m115.59,147.97c.861.879.641,2.463.362,3.98-.83-.62-.13-2.76-.36-3.98z"></path>
	<path d="m97.862,154.12c-.695.511-.655,1.757-1.085,2.533-.481-.26-.185-2.81 1.085-2.53z"></path>
	<path d="m128.98,154.12c.523.087.841,2.978-.362,2.533-.18-1.13.65-1.27.36-2.53z"></path>
	<path d="m94.967,155.21c.046.649-.443.763-.362,1.447-.584.102-.623-.342-1.085-.362v-.724c.649.04.763-.45 1.447-.37z"></path>
	<path d="m115.59,155.21c.956,1.036 1.209,5.183 0,6.512v-6.51z"></path>
	<path d="m92.796,157.38c-.676-.708-1.325-.112-2.17,0-.305-1.138-1.657-1.429-1.809,0-.834.111-.402-1.045-1.085-1.085 1.591-1.12 4.128.11 5.064,1.08z"></path>
	<path d="m94.244,158.83c1.738,1.25-1.89,3.091-2.171,4.703-.889-1.74 1.818-3 2.171-4.7z"></path>
	<path d="m97.862,162.45c-2.546-.142.774-2.752-1.085-2.894 1.216-2.42 2.098,1.95 1.085,2.89z" fill="#fff"></path>
	<path d="m57.341,160.64c.843,5.187.121,11.939.362,17.728-.785.061-.164-1.283-.362-1.809 .013-7.56-.363-11.04 0-15.92z"></path>
	<path d="m123.19,162.08c1.242,17.144.558,41.181 1.086,61.505-1.49-19.87-.89-37.24-1.09-61.5z"></path>
	<path d="m99.309,163.17h1.085c-.169,1.278.591,3.486-1.085,3.256-.852-.9.001-2.13.004-3.26z" fill="#fff"></path>
	<path d="m95.691,164.62c1.276-.124 1.108,3.795-.362,3.256 .219-1.79-.691-2.46.362-3.26z" fill="#fff"></path>
	<path d="m115.95,167.15c.25,5.539.87,14.15.361,21.708-.03.448-.003,2.906-.361,1.085-1.73-8.78.99-15.76 0-22.79z"></path>
	<path d="m128.98,167.51c.662.57.517,5.312 0,4.703-.01-2.61-.38-2.66 0-4.7z"></path>
	<path d="m105.46,168.96c1.141.936.409,2.311.362,4.704-.83-.86-.13-3.24-.36-4.7z"></path>
	<path d="m128.98,173.3c.828,2.672.133,9.996.361,14.472-.83-2.67-.13-9.99-.36-14.47z"></path>
	<path d="m109.44,175.11c1.467-.14.398,2.254.724,3.256-1.46.13-.4-2.26-.72-3.26z"></path>
	<path d="m94.967,178.73c.843,3.74.122,9.044.362,13.387-1.116-2.88-.67-9.61-.362-13.39z"></path>
	<path d="m109.44,180.9c1.538-.069.412,2.268.362,2.895-.82-.28-.14-2.04-.36-2.9z"></path>
	<path d="m92.796,181.98c.553,3.705.276,9.35.362,15.195-.83-4.12-1.078-10.08-.362-15.2z"></path>
	<path d="m96.776,182.71c.833.975.128,3.489.362,5.065-1.289-1.26-.208-4.01-.362-5.07z"></path>
	<path d="m74.345,183.07c1.189.753-.611,1.526-.724,2.171-1.016-.58.785-1.35.724-2.17z"></path>
	<path d="m82.305,184.15c.42-.059.644.08.723.362 .15,7.894-.413,13.646 0,20.26 .045,2.727-.629.363-.361-1.085-.668-4.73-.244-13.09-.362-19.53z"></path>
	<path d="m109.44,185.24c.994,1.667.423,4.85.362,6.874-.84-1.57-.12-4.7-.36-6.87z"></path>
	<path d="m89.541,185.6c1.575.354.323,3.537.724,5.065-1.577-.35-.324-3.53-.724-5.06z"></path>
	<path d="m128.98,188.5c.453.993 1.608,4.74 0,5.427v-5.43z"></path>
	<path d="m89.541,191.03c1.142-.465 1.142,2.998 0,2.533v-2.53z"></path>
	<path d="m115.95,191.03c1.059,1.261.604,3.292.361,5.065-.83-.98-.13-3.5-.36-5.07z"></path>
	<path d="m89.541,193.92c1.62.913.291,4.774.724,6.875-1.248-1.12.37-4.87-.724-6.88z"></path>
	<path d="m128.98,194.28c1.467-.14.398,2.255.724,3.256-1.47.14-.4-2.26-.72-3.26z"></path>
	<path d="m115.95,197.54c1.336,1.395.4,3.002.361,4.703-.83-.85-.13-3.24-.36-4.7z"></path>
	<path d="m128.98,197.9c.615-.133.683.282.724.724-.023,5.332.018,13.729 0,20.26v10.492 5.427 2.533c-.417,1.17-.409-.972-.362-1.447 .16-17.41-.37-23.09-.36-37.98z"></path>
	<path d="m79.048,200.44c.923,2.794 1.31,8.569 0,12.301v-12.3z"></path>
	<path d="m116.31,209.12c.792.303.16,5.14.362,7.236-1.11-2.06-.06-4.21-.36-7.24z"></path>
	<path d="m62.406,209.84c.297.783-.2,2.632.362,3.98-.772-.169-.689.517-.724,1.085-.568-.156-.309-1.138-1.447-.724 .248-1.8-.089-4.19 1.809-4.34z" fill="#fff"></path>
	<path d="m75.792,209.84c.637,1.518.477,8.76 0,3.98-.104-1.05-.914-2.46 0-3.98z"></path>
	<path d="m59.511,210.93c.666.69.641,3.758-.362,3.98-1.354-.45-.878-3.89.362-3.98z" fill="#fff"></path>
	<path d="m110.16,210.93c.6.624.6,3.718 0,4.342 .24-1.89-.43-3.27 0-4.34z"></path>
	<path d="m73.26,216.35c1.143.068.839,2.672.362,3.256-.822-.39-.138-2.27-.362-3.26z"></path>
	<path d="m62.044,220.33c.693-.786.229,2.646.362,3.618-.694.79-.229-2.64-.362-3.62z"></path>
	<path d="m65.662,221.42c.089-.455.719-.365.723,0-.22,3.16.455,9.133-.361,10.492-.068-3.61.205-8.45-.362-10.49z"></path>
	<path d="m70.365,221.06c1.427-.221.426,1.986.724,2.895-1.174-.69.04-1.66-.724-2.9z"></path>
	<path d="m57.703,222.14c1.622,4.449.505,11.24.724,15.557-1.159-4.32-.5-9.14-.724-15.56z"></path>
	<path d="m62.044,225.04c.728-.586.205,3.156.362,4.341-.728.58-.205-3.16-.362-4.34z"></path>
	<path d="m116.31,226.48c.671-.879.244,2.385.362,3.256-.67.88-.24-2.38-.36-3.26z"></path>
	<path d="m54.084,227.21c.619,2.155.404,5.144.724,7.598-1.705-.9-1.203-5.71-.724-7.6z" fill="#fff"></path>
	<path d="m123.91,231.55c.781.073.167,4.649.362,6.512-.78-.07-.16-4.65-.36-6.51z"></path>
	<path d="m148.51,234.08c.642-.965.264,2.12.361,2.895-1.174-1.18-.255,1.582-1.809,1.085 .2-1.61 1.88-1.75 1.45-3.98z" fill="#fff"></path>
	<path d="m41.784,241.68c-.894,3.798-4.145,9.522-6.875,11.578 2.32-3.83 4.445-7.86 6.875-11.58z"></path>
	<path d="m102.93,242.04c.016.925-.269.441-.724.361-.27,1.114.993.695.724,1.809-.892.058-1.569-2.135-1.447,0-1.533-.51.03-2.41 1.45-2.17z"></path>
	<path d="m87.731,242.4c1.052.315.407.542.362,1.447-.921.394-1.403-1.694-1.447,0-.424-.058-.305-.66-.362-1.085 .573-.03 1.38.18 1.447-.36z" fill="#fff"></path>
	<path d="m74.345,244.21h1.085c-3.828,27.504-7.604,56.001-11.939,83.937-.766-6.551 1.042-13.233 2.171-19.899 3.309-19.554 5.203-41.914 8.683-62.952v-1.09z" fill="#fff"></path>
	<path d="m107.99,248.55c2.095,1.523 1.287,5.95 2.895,7.959-1.92-.25-1.96-5.5-2.89-7.96z"></path>
	<path d="m25.502,249.28c.747.771-.258,2.859-1.447,2.894 .17-1.28.914-1.98 1.447-2.89z"></path>
	<path d="m38.166,251.09c.42.304.97.477 1.809.361-.317,1.492-1.372,2.247-1.809,3.618-.428-1.109-.094-1.542-.724-2.895 .738.202.709,1.089 1.447.362-.156-.58-1.138-.32-.723-1.45z"></path>
	<path d="m105.82,251.81c.966.867.355,1.066.724,2.532-.61-.51-1.25-1.96-.72-2.53z"></path>
	<path d="m68.194,252.53c1.738.839-.521,2.388 0,3.617-1.371-.35.164-2.27 0-3.62z"></path>
	<path d="m24.056,254.7c-1.896-.565-6.041.624-9.045.362 1.802-1.66 7.763-2.26 9.045-.36z"></path>
	<path d="m28.759,253.62h1.085v1.447h-1.447c-.046-.65.443-.77.362-1.45z"></path>
	<path d="m30.568,253.98c.457.507 1.909.021 1.447,1.446h-1.447v-1.45z"></path>
	<path d="m115.23,254.34c1.545,4.484 3.323,8.737 3.618,14.472-1.44-4.59-2.58-9.48-3.62-14.47z"></path>
	<path d="m96.776,255.79c1.413-.235.574,2.135-.362,1.809-.298-1.02.51-.94.362-1.81z" fill="#fff"></path>
	<path d="m92.796,257.24c.371.512-.002,3.358-1.085,3.618 .575-1 .511-2.63 1.085-3.62z"></path>
	<path d="m110.52,257.6c1.225,1.309 1.533,3.532 1.809,5.789-1.42-1.11-1.35-3.71-1.81-5.79z"></path>
	<path d="m121.02,261.22c.982.466 1.096,1.798 1.085,3.256-.74-.71-.69-2.21-1.08-3.26z"></path>
	<path d="m119.93,273.88c1.083.363.714,2.18 1.085,3.256-.74-.71-1.08-1.82-1.09-3.26z"></path>
	<path d="m73.26,274.6c.896.572.147,2.531 0,3.256-1.079-.76.48-1.9 0-3.26z"></path>
	<path d="m92.073,276.77c.881.904.044,3.161-1.085,3.256 .21-1.24 1.21-1.69 1.085-3.26z" fill="#fff"></path>
	<path d="m16.458,278.94c-1.184,1.59-4.318,1.229-5.065,3.256-.834-1.93 2.965-4.26 5.065-3.26z"></path>
	<path d="m121.02,278.58c.861.827 1.048,2.328 1.085,3.979-.64-1.05-.82-2.55-1.08-3.98z"></path>
	<path d="m123.19,278.94c.729,1.08 1.065,2.553 1.086,4.341-.74-1.08-1.07-2.55-1.09-4.34z"></path>
	<path d="m142,280.03c1.46-.035 1.053,6.939.724,3.256-.09-1.24-.91-1.74-.72-3.26z" fill="#fff"></path>
	<path d="m89.179,287.99c1.409.365.056,1.246.362,2.533-1.319-.27.034-1.15-.362-2.53z" fill="#fff"></path>
	<path d="m121.38,289.44c1.098-.133.751,1.179 1.085,1.81-1.01.05-1.04-.89-1.08-1.81z" fill="#fff"></path>
	<path d="m67.109,289.8c.81.717-.354,2.519-.361,3.618-.81-.72.354-2.52.361-3.62z" fill="#fff"></path>
	<path d="m66.024,293.78c1.808.328-.148,2.269.361,3.618-.824-.51-.135-2.52-.361-3.62z" fill="#fff"></path>
	<path d="m69.28,300.65c1.114-.107.13,3.344 0,4.342-1.044-1.06.508-2.61 0-4.34z"></path>
	<path d="m31.292,307.89c-.158-.537-.463.143-1.085,0-.249-1.213.607-1.323 1.447-1.447 .158,1.237.823,3.254 0,4.342-1.023.299-.938-.511-1.809-.362 1.369-1.05 1.401.08 1.447-2.53z"></path>
	<path d="m126.44,310.06c1.225.222.459,2.435 1.085,3.256-.97-.47-1.09-1.8-1.08-3.26z" fill="#fff"></path>
	<path d="m147.43,312.95c1.376-.29.46,1.711.724,2.533-1.14-.75-.21-1.47-.72-2.53z" fill="#fff"></path>
	<path d="m148.51,330.32c-.984,1.308-3.054,1.53-5.065,1.81 .64-1.64 3.26-.69 5.07-1.81z"></path>
	<path d="m59.511,331.04c.706-.914 2.429.2 3.256.362-.859,1.07-2.191-.43-3.256-.36z"></path>
	<path d="m151.04,335.75c-.912-1.82-.496-2.906-.361-4.704 .46,1.36 1.48,3.88.36,4.7z" fill="#fff"></path>
	<path d="m73.26,331.77c1.053-.684 3.152.529 3.979.362-.51,1.42-2.553-.45-3.979-.36z"></path>
	<path d="m79.048,332.49c1.534-.132.317,1.568.362,2.171-.799-.04-.154-1.53-.362-2.17z" fill="#fff"></path>
	<path d="m148.15,333.21c-1.484.928-3.455,1.369-5.788,1.447 1.44-.98 3.86-.97 5.79-1.45z"></path>
	<path d="m58.064,333.94c.263.823 2.504-.333 2.171,1.086-.902-.19-2.183,0-2.171-1.09z"></path>
	<path d="m133.68,334.3c-.051,1.034-1.509.661-2.532.724 .52-.56 1.41-.76 2.53-.72z"></path>
	<path d="m62.044,334.66c3.11,1.111 7.148,1.294 10.13,2.532-2.956.02-8.51-1.04-10.13-2.53z"></path>
	<path d="m151.04,336.11c.836-1.045 1.049,1.58 1.086,2.532-1.46-.34-.52-2-1.09-2.53z" fill="#fff"></path>
	<path d="m146.7,336.11c-.979.709-2.4.977-3.979,1.085 .55-1.15 2.27-1.12 3.98-1.09z"></path>
	<path d="m157.92,348.05c.736.349.781,1.39.724,2.532-.89-.7-.8-1.7-.72-2.53z" fill="#fff"></path>
	<path d="m149.6,351.3c.863,2.104.21,6.826-.361,2.171 .41-.42.41-1.27.36-2.17z"></path>
	<path d="m69.28,352.03c.897,1.177.577,3.275.362,4.703-1.157-1-.009-2.57-.362-4.7z"></path>
	<path d="m147.79,356.37c1.377.353.958,4.686-.362,4.703-.09-1.77.63-2.74.36-4.7z"></path>
	<path d="m52.275,363.6c1.173-1.266 1.971.903 3.256.724-.692,3.529-1.906,6.536-2.895,9.769-.731-2.246 1.587-5.999 2.171-8.683-.909-.53-1.206-1.68-2.532-1.81z"></path>
	<path d="m52.637,364.33c.342,2.156-.436,6.314-2.171,7.598 .483-2.78 1.382-5.14 2.171-7.6z"></path>
	<path d="m66.748,367.22c.555,1.199-.451,1.685-.724,3.256-.594-.5.158-2.72.724-3.26z" fill="#fff"></path>
	<path d="m160.45,373.37c1.321.127.561,2.334 1.086,3.257-.97-.48-.6-2.29-1.09-3.26z" fill="#fff"></path>
	<path d="m143.45,376.63c1.259.791 1.534,2.565 1.809,4.341-.96-1.09-1.19-2.91-1.81-4.34z"></path>
	<path d="m39.975,392.19c.696,1.79-1.244,4.056-1.447,6.15-.696-1.79 1.243-4.06 1.447-6.15z"></path>
	<path d="m57.341,395.44c.115.84-.058,1.39-.362,1.81-1.111-.07-.759-1.95.362-1.81z" fill="#fff"></path>
	<path d="m168.05,397.25c1.097-.012.901,1.27 1.085,2.171-.88-.21-.81-1.36-1.09-2.17z" fill="#fff"></path>
	<path d="m176.73,424.02c1.615.11 1.357,2.65 1.085,3.618-.92-1.4-.15-2.24-1.09-3.62z" fill="#fff"></path>
	<path d="m38.527,425.83c.98.656-.201,2.183-.362,2.894-.936-.61.701-1.68.362-2.89z"></path>
	<path d="m25.141,429.45c-.116-.639 2.026-.646 1.447.362-.308.066-.341-.142-.362-.362-1.083.238.346.773 0,1.447-1.424.58-.125-1.56-1.085-1.45z" fill="#fff"></path>
	<path d="m174.2,429.09c1.389,1.264 1.342,3.964 2.171,5.788-1.35-1.3-1.5-3.81-2.17-5.79z"></path>
	<path d="m37.08,430.17c.868.893-.544,2.573-.724,3.618-.994-1.02.862-2.25.724-3.62z"></path>
	<path d="m34.547,430.9c.868.893-.544,2.573-.724,3.618-.867-.9.546-2.58.724-3.62z"></path>
	<path d="m200.97,450.8c-.715,1.739-3.008-.72-4.703-.362-.487-1.786-1.891-2.979-3.979-2.171-1.585-1.671-3.459-3.054-4.704-5.064-.262-1.107.625-1.064.362-2.171-.264-.822-1.089-1.082-1.81-1.447-1.175.036-1.516,1.995-2.532,1.085-.845-2.193 1.486-2.666 3.256-3.256 3.89,5.26 7.7,10.61 14.1,13.38zm-9.04-4.34c.603-.719-.032-.46 0-1.447-.839.115-1.389-.059-1.809-.362-.13,1.33.9,1.51 1.81,1.81z" fill="#fff"></path>
	<path d="m173.12,439.58c1.403,1.732 2.113,4.158 2.533,6.874-1.13-2-1.66-4.6-2.53-6.87z"></path>
	<path d="m190.12,444.65c.42.304.97.478 1.809.362-.032.987.603.729 0,1.447-.91-.3-1.94-.48-1.81-1.81z"></path>
	<path d="m24.056,446.09c2.121,1.495 5.381,6.827 2.894,9.407 .446-4.55-1.925-6.28-2.894-9.41z"></path>
	<path d="m45.04,451.52c-1.023-.445-2.233-.445-3.256,0-.443-2.08 3.471-1.78 3.256,0z"></path>
	<path d="m189.4,450.44c.584-.102.623.342 1.085.362 .172,1.602-.498,1.799 0,2.894-2.23.53-2.09-2.6-1.08-3.25z"></path>
	<path d="m12.116,451.16c.475.128.569.637 1.085.724 .046.648-.443.763-.362,1.447-.518-.45-.685-1.25-.723-2.17z" fill="#fff"></path>
	<path d="m13.202,453.69c3.2,3.946 9.428,6.691 9.769,12.302-1.056.558-1.787-2.303-3.618-2.171-2-3.21-7.1-5.17-6.151-10.13z" fill="#fff"></path>
	<path d="m195.91,454.78c-1.207,1.054.893,1.794 0,2.532-1.688,0-2.532-.844-2.532-2.532 1.05-.59 1.79-.19 2.53,0z"></path>
	<path d="m202.42,456.22c-.548,1.724.291.898.361,2.532-1.121.036-1.729-.442-2.532-.724 .08-1.24 1.08-1.57 2.17-1.81z"></path>
	<path d="m237.88,456.95c.237-1.084.773.346 1.447,0-3.663,10.206-11.498,16.239-22.432,19.175-.23.789 1.025,1.151-.361,1.085v-1.085c-1.561.426-3.731,1.152-5.065.724 9.073-2.715 17.273-7.079 23.154-13.748 1.49-1.69 3.52-4.69 3.25-6.14z" fill="#fff"></path>
	<path d="m206.76,457.31h1.085c.464.748 1.499,2.013.724,2.895-1.114.271-.441-1.247-1.809-.724 .01-.72.01-1.45.01-2.17z"></path>
	<path d="m216.89,458.4c-.776,1.997-1.085,4.462-2.895,5.427 .95-1.83.37-5.18 2.89-5.43z"></path>
	<path d="m49.02,462.37c.778.759 2.46-.824 2.17,1.447-.649.046-.763-.443-1.447-.362-.179,1.136 1.247.956.362,1.81-1.395-.26-2.486-1.85-1.085-2.9z"></path>
	<path d="m23.332,463.82c1.511.418 1.761,2.098 2.894,2.895-.333.985-1.131-.506-2.17,0 1.024-1.61-1.204-.9-.724-2.9z" fill="#fff"></path>
	<path d="m174.56,468.16c5.689-.021 8.956,2.381 11.216,5.789-3.32-2.35-6.98-4.36-11.22-5.79z"></path>
	<path d="m60.597,468.89c-2.096,2.125-4.917,3.525-7.236,5.428 .838-3.39 3.587-4.86 7.236-5.43z"></path>
	<path d="m43.23,480.46c.644.321.92,1.01 2.171.724-.059.42.08.644.362.724-.914,1.02-2.429-.43-2.533-1.44z" fill="#fff"></path>
	<path d="m190.48,482.64c-4.866,1.786-11.756,3.081-17.366.361 4.704-.751 12.243-.229 17.005-2.532 1.65-.02.02,1.26.36,2.17z" fill="#fff"></path>
	<path d="m71.089,483c.649,1.735-1.005,1.166-1.447,1.809-6.067-.746-11.225,3.145-15.919-.361 6.185,1.02 12.489-.41 17.366-1.45z"></path>
	<path d="m160.81,453.33c.321-3.899 3.422-5.021 5.789-6.874-9.833-25.864-18.887-52.508-28.221-78.871-9.358-2.725-15.467-14.061-10.13-24.24-6.685-27.838-14.06-57.072-20.622-82.852 2.443,3.791 3.102,8.607 4.341,13.024 5.586,19.9 10.235,42.967 15.919,64.038 1.571.233 4.462-1.627 4.703-.362-1.639.533-4.545-.203-4.342,2.171 1.987,1.014 4.368-.688 6.513-.724-1.155,1.499-3.971,1.336-6.151,1.81-.262,1.106.625,1.063.362,2.171 .919-1.687 5.391-3.027 6.874-1.81 2.335-2.293 9.235-2.847 14.11-3.618-.598,1.889-3.062,1.411-4.704,1.81-4.577,1.109-10.234,2.935-15.195,3.618-2.398,1.701-1.943,6.256-3.256,9.045 .193.55.551-.294.724.361 1.788,6.764 3.307,12.915 12.301,14.11 5.97.793 10.979-.89 13.387-4.703 1.246,4.319 3.32,9.681 3.979,13.386-2.04-2.542-1.931-7.234-3.979-9.769-1.487,2.921 1.529,7.316 2.171,10.492-2.726-2.54-1.754-6.644-3.979-9.406-2.353,2.508 1.811,7.153 2.17,10.492-1.855-2.8-4.555-7.961-3.617-11.216-3.789,2.208 1.415,8.172 1.447,11.577-2.019-2.523-4.116-8.147-3.618-10.854-2.255-.273.336,2.417-1.81,1.809 .678,3.423 2.457,5.744 2.895,9.407-2.609-2.335-2.132-7.757-4.703-10.131-1.311,3.14 2.202,6.362 2.532,10.131-3.109-1.594-1.642-7.765-5.064-9.045-.447,2.262 2.061,4.688 2.171,7.598-2.217-1.884-1.832-6.37-3.98-8.321 8.536,27.402 19.154,55.857 29.306,82.851 .16,1.366-.714,1.698-1.085,2.532 .744.005 1.872-1.075 2.894-1.447-.087-.933-.622.497-1.447,0 .004-1.855 1.707-.137 2.171-1.809-.248-2.524-1.481-4.065-1.809-6.512 1.196,2.06 2.093,4.419 2.532,7.235 2.312-2.091-.337-6.565-1.085-9.769 1.336,1.92 1.96,4.553 2.532,7.236 3.493-.367 4.359-3.359 7.236-4.342-2.597-5.217-3.926-12.185-6.15-18.813-2.156-6.422-3.696-13.989-6.513-18.813-.551-.943-.715-1.434-1.809-1.447-.111-.834 1.045-.401 1.085-1.085-4.795-12.993-8.826-28.477-13.024-40.883 2.927,3.701 3.526,8.52 4.703,13.024 5.849,22.382 15.209,45.561 22.432,67.294 .146-2.322-1.695-5.778-2.533-8.321 1.538-1.135 1.029-.919 1.086-2.532-1.216-.372-.563,1.125-.724,1.809-5.085-11.461-8.14-25.553-12.663-36.541 1.69-.781.596-2.887 0-4.342-1.169.996 1.407,2.687.362,3.618-1.682-1.554-1.03-3.953-.724-5.065-.567.128.316.637-.362.724-2.415-2.649-2.371-7.759-4.342-10.854 .849-2.447.833-1.583.362-3.979-1.434.459 1.09,2.779-.724,2.532 .01-2.371-2.946-5.671-.724-6.874-.464-.622-1.723-.448-1.809-1.447 .252-2.491-2.005-3.75-.362-4.703-.227-.738-1.828-.102-1.447-1.447 .521-.193.883,1.409 1.086.361-.004-2.316-.715-.454-1.447-1.085-.102-1.904.382-2.146 0-3.618-1.838.922.071-1.366.724-2.895-2.021-.082-2.275,3.502-2.895,3.618-1.339-.29-.203-2.81.724-1.809 3.539-7.708 1.475-18.855-5.065-21.708-.056-.9.568-1.12.724-1.809-.477-1.043-2.293-.744-3.256-.362-.032-1.237 2.202-.209 2.171-1.447 .653-.62-.111-1.423-1.086-1.447 .321-.644 1.011-.919.724-2.171-3.71-22.276-7.773-46.848-11.577-70.188-2.877-4.84-1.812-13.276-4.703-18.813-.226,5.544 2.475,13.186 2.532,18.451-2.12-5.236-2.438-12.275-3.618-18.451-1.427,4.581 1.674,12.367 2.171,18.451-1.742-1.63-1.731-4.868-2.171-7.598-.626-3.888-1.102-7.641-1.809-11.939-1.049,3.93.171,8.226.724,12.301 2.188,16.151 6.057,33.8 8.683,50.289 1.175,7.377 2.916,14.768 3.618,21.708 .795,7.852-8.129,12.177-12.301,5.788-2.53-3.874-2.368-9.602-3.618-14.472-3.527-13.744-9.612-34.158-11.577-46.671-.174-1.109-.612-1.643.361-2.171-1.534-.878-1.216-3.608-2.17-5.065 .139-.946 1.16-1.011.724-2.532-1.387-.066-.131.296-.362,1.085-1.349-4.454-3.022-7.715-2.533-13.386-1.015.627-.34.948-.362,2.171-1.198-2.944.37-4.826-2.533-6.513 1.142-.68 1.029,1.01 2.171.724 3.164,12.872 7.896,26.377 9.045,39.074 1.236-1.345 2.258,6.788 2.894,9.407 2.911,11.976 6.692,26.333 9.769,38.35-.714-9.055-4.483-18.188-5.788-27.857 2.565,9.372 5.012,18.866 6.874,28.943 5.754,2.706 9.424-1.924 8.321-7.236-4.252-20.472-8.189-50.768-12.302-72.721-.656-3.503-2.033-6.816-1.447-10.13-1.113-.27-.695.993-1.809.724 1.874,8.738 3.649,17.576 5.065,26.772-2.238-3.936-2.291-9.265-3.257-14.11-.966-4.851-1.9-9.629-2.894-14.109-.633,8.124 2.887,17.999 3.979,26.772-3.032-6.071-3.097-17.759-5.789-25.325 .189,8.494 2.887,17.614 4.342,26.049-2.232-3.021-2.373-8.26-3.256-13.024-.849-4.575-1.608-9.407-2.895-13.387-.964,7.526 3.113,16.146 3.618,24.603-2.92-7.449-2.545-16.435-5.789-23.879-.285,3.486.902,7.972 1.809,12.301 .895,4.273 2.442,8.569 2.895,12.663-3.151-7.099-3.629-16.872-6.15-24.602 .107-1.786 1.604-.085 1.809-1.447-1.826-1.543-2.284,2.271-3.256,0 1.152,5.12 3.125,12.552 4.342,18.813-2.826-5.255-2.206-13.955-5.789-18.452 1.135.824.226-.23.362-.361 2.231-2.142 11.012-1.546 15.557-1.809 6.279-.363 11.872-.343 15.558-2.895 .107-.951-1.403-.285-1.086-1.447-.045-36.913-.518-66.509-.361-103.11 1.981,2.348 1.085,6.842 1.085,10.854 0,33.326-.062,72.583.362,93.343 1.96-30.903.079-69.239.724-102.75 2.089,6.942.848,17.287 1.085,25.326 .641,21.648.088,47.658-.724,65.123 1.729,3.709-.943,6.822 2.171,9.769 .612-1.26.134-1.264-.724-1.809-.197-24.222.511-44.793.362-63.676-.031-3.94-1.114-8.074-.362-12.301 .209-1.173.707-.051 0-2.171 .394.089.245.72.724.724-.272-.554-1.654-5.308.362-4.703-2.793-5.018.324-10.015-.724-14.834-1.652-7.592-15.657-6.005-24.24-6.874-12.347-1.249-29.681-.511-40.883-.724 .291-.767 1.489-1.411 2.171-.724 .018-6.21-.091-10.449 0-16.28-.919-.444-1.876-.018-3.256,0-1.222-.633.449-2.061-1.447-2.171-1.68.635.438.75.362,1.809-1.154-.656-3.409-.209-2.895-2.533-1.639-.27.553.993-1.085.724-5.856-3.657-4.341-10.397-4.341-18.813 0-9.905-.207-18.846-.362-28.582 2.068,1.521.781,5.032.723,7.236-.154,5.951.495,16.804.362,24.24-.128,7.162-.645,13.555 6.513,15.195 6.732,1.542 9.774-.065 17.004.724 1.357-.272.789,1.382 1.809,1.447 1.069-.315-.839-.542-.362-1.447 6.677-.869 29.577,4.154 28.582-9.769-6.333-2.839-12.348-7.903-10.492-17.728 2.564,2.26 4.804,4.844 9.045,5.427 2.539-2.124.412-7.043.361-10.492-.088-5.979.906-12.611.362-18.09-.363-.964-1.461-1.193-2.171-1.809-.785-.061-.164,1.283-.362,1.809-.91-.296-.504-1.907-1.085-2.533-.923.396-1.861-1.236-1.81.362-5.128-4.304-14.555-5.387-22.431-5.427-3.125-.016-5.992,1.095-8.321.362-1.565,1.406-3.045.974-5.427,1.809v2.17c-.153-2.912-2.53-1.091-4.341-.724v2.895c-.471-.856-.604-2.049-1.085-2.895-1.003.926-2.439,1.42-2.533,3.256-1.527-1.196-1.668-1.948-3.618-1.809-.066,2.338.855-.247 1.447.724 .743,4.06.293,8.759.362,12.663-1.048-1.729.325-9.005-.724-11.939-2.209.522-.122,3.281-1.085,3.98-.902-9.414-2.374-19.725 4.704-25.326 1.838-.064.079,1.222 1.447,1.447 1.173-.785.197-.805 0-1.809 5.283-1.719 12.274-4.458 17.004-3.618-.004-2.35 1.03-5.995 2.532-7.959-10.653-2.376-5.25-18.867 4.342-17.728-1.569,2-7.126,5.596-6.15,10.492 1.296,6.508 8.461.073 13.024,2.171 .304.901.474,1.938.362,3.256-4.614,1.416-8.651,3.409-9.407,8.683 9.678,1.483 25.274.029 27.135,11.578 1.358,8.437-1.009,18.11 0,28.22 2.535.841 6.631.123 9.769.362 1.655,1.941 1.089,6.438.724,9.407-1.98,1.759-6.596.882-10.131,1.085-1.476,6.384 1.398,13.914.362,20.623-1.331,8.611-10.062,8.832-17.366,9.045-.233,4.036.114,10.117 0,15.919 3.604-.161 12,1.655 14.472-2.171v-1.447c.152-1.794-1.084-.205-1.447-1.085-1.334-3.616 2.093-10.261 5.065-7.236 .789-1.743 2.33-2.734 3.256-4.341 1.518-.191 2.021.632 3.256.723 5.351-11.172 9.093-23.951 14.11-35.456-1.288-1.799-3.651-1.994-5.065-4.342 .653-1.156 1.18-3.96 2.533-3.256-.25-4.017 3.302-7.289 4.341-11.216 .491.112.301.906.362,1.447 1.394-.867-.165-1.067 0-2.533 1.06-.991 1.314-2.786 2.532-3.618-.891-11.077 2.8-18.709-.361-27.497 .338-.265.548-.658.724-1.085 1.983-.853 3.225-.46 4.703.362 .755-7.995 2.132-18.237 4.703-24.24 7.472.498 5.495,10.223 6.874,18.813 .68,4.228 1.846,8.079 1.81,11.215-.105,8.982 1.672,19.395-3.257,24.602 2.961,8.376 6.617,16.056 7.96,26.049-5.081,2.08-12.127.614-17.005-1.809-5.747,11.257-9.325,24.684-14.472,36.542 1.195,1.097 3.249,1.333 3.98,2.895v4.703c.038,1.409 2.271.622 2.532,1.809-.104,4.478-1.757,7.408-3.979,9.769 1.354,4.477 1.077,10.142 1.085,14.472 .029,16.233-.361,37.173-.361,58.249 0,8.852 1.124,18.039 0,25.326-.927,6.004-7.087,9.839-13.749,8.321 .062,4.415.543,8.667 1.447,13.386 5.025,26.214 7.773,56.822 13.387,82.128 1.122,5.056 9.354,8.657 6.874,18.451-1.523-.044-.359-2.776-.724-3.979-1.395,1.268-.287,3.011-.724,5.427 .424-.059.306-.66.362-1.086 1.633,1.407-.689,3.461-.724,5.065-.055,2.539 2.076,6.279 3.256,9.769 7.486,22.143 14.398,46.259 21.708,67.294 1.729.538 2.79-2.439 5.427-2.171 4.457,8.573 12.263,15.522 22.431,19.537 6.469,2.554 14.453-3.283 22.07-2.533 3.611.356 5.952,1.891 9.045,4.342-4.472,17.009-24.703,23.889-41.245,22.432-3.572,1.011-8.579.586-9.045,4.703-10.715,3.735-19.645,3.34-23.517-6.15-1.649-4.043.222-7.515 0-11.216-.047-.791-.961-3.345-1.085-3.979-.77-4.36-2.77-6.82-5.71-9.01zm-7.23-90.09c-.498.016-.794-.171-1.085-.362 .252,1.699-1.559,1.337-1.809,2.533 1.19,1.006.729-1.422 2.17-.362-.28-1.11 1.24-.44.72-1.81zm7.96,13.39c-.525-.923.235-3.13-1.086-3.257 .49.97.12,2.78 1.09,3.26zm-9.41-37.99c-.037-.952-.25-3.577-1.086-2.532 .57.53-.37,2.19 1.09,2.53zm-1.45-7.6c-.135,1.798-.551,2.884.361,4.704 1.12-.81.1-3.33-.36-4.7zm-3.61-92.98c1.554.496.635-2.266 1.809-1.085-.098-.774.28-3.859-.361-2.895 .42,2.23-1.26,2.37-1.45,3.98zm-24.97-145.08c.074-1.521.13-3.025-1.085-3.256 .608,1.935-1.084,1.569-1.085,2.895 .88.36.76.12 2.16.361zm35.46-42.691c-.111.834 1.045.402 1.085,1.085-3.101,6.789-6.688,13.091-9.769,19.898 7.026,4.519 17.533,7.881 26.411,8.321-1.495-8.515-5.199-16.749-5.789-24.964 2.055,7.271 4.046,17.633 7.236,24.964-.012-9.173-5.032-15.202-5.427-22.793-1.665-.197-.589-2.066-2.171-2.895-.363,1.595-2.395.983-2.532-.361 1.274-.526 1.678-.015 3.256,0 2.271-2.064 3.436-4.927 3.618-9.045 .364-8.209-1.116-19.683-1.447-25.688-.924-1.926-2.069-6.478-.362-8.321-2.638-.573-.819-8.204-4.341-9.045-.471,1.339-1.2,2.417-1.447,3.979 1.022.299.937-.51 1.809-.361 3.292,5.225 2.299,14.527 3.979,20.26-4.284-4.037-.466-16.177-5.788-19.175-2.005,5.628-2.139,11.873-2.895,18.09 1.279,1.253 2.8,2.266 3.618,3.98-.575,3.174 2.798,4.106 2.171,6.15-3.941-2.406-3.89-12.408-11.216-9.045 3.844,8.931-3.147,20.2 3.256,28.582-2.323-.067-1.442-2.784-2.532-3.256-.32-.201-1.58-1.087-.72-.36zm-62.231-33.286c.405,3.145 4.41,7.513 7.236,4.341-7.645-1.356-5.9-11.001-.724-13.748-3.365.988-7.097,4.859-6.511,9.407zm3.618,14.11h2.532c-.161-7.035 5.775-7.973 9.769-10.854-5.99-2.365-11.979,4.008-12.303,10.854zm7.593,3.257c.205-.211.449.356.362.362-11.873.814-23.672,1.325-31.115,7.236-.619,2.386-2.087,7.027 0,7.598-1.125-1.152.293-4.093.724-6.512v2.532c2.175.486.925-2.451 1.809-3.256-.262,1.106.624,1.064.362,2.171 2.667.415 2.013-1.542 2.895-2.171 .036,1.28.694,1.585-.362,2.171 1.314-1.097 3.162-1.662 4.703-2.533-.803-.15-.347-1.984.362-1.809v2.171c6.686-1.706 14.023-2.675 22.069-1.447 .215-.75-.447-2.377.362-2.533 .499.466.358,1.572.362,2.533 .935.163 2.552.18 3.98.724 .676-.988-.407-2.088.724-3.256v3.256c1.304.505 3.246.372 3.979,1.447 .481-2.308-.115-3.695 0-6.512-1.513-.175-2.681-.695-3.979-1.085-.198.525.423,1.87-.362,1.809-.368-1.199.206-1.569-1.085-2.17-1.72.461-4.75-.559-5.78-.726zm11.94,8.321c1.017.43 2.08.814 3.256,1.085-.181-2.19-.048-3.998-.361-5.789-1.019-.308-1.484-1.168-2.895-1.085v5.789zm5.07,1.809c1.682-.785.075-4.474.724-5.427-1.352.387-1.031-.898-2.171-.724 .41,2.887-.74,5.504 1.45,6.151zm1.45.724c1.896-.078 1.281-5.125.361-5.789-.75,1.298-.19,3.912-.36,5.789zm2.53.723c1.241-.555.611-4.43-.724-4.704 .39,1.419-.84,4.456.72,4.704zm-43.417-.723c1.374.729 1.435-1.645.724-1.809-.154.689-1.034.654-.724,1.809zm12.302,2.894c1.106-.64-1.595.68-1.085-1.085 5.59-.959 12.817.934 15.557.362 1.403-.292 2.527,1.703 2.895-.362 .024,2.267 3.431,1.152 4.341,2.533v-2.533c-1.653-.176-3.534-1.83-4.703-.362-.58-1.321-3.848-1.835-4.704-.723v-1.085c-9.424-.261-16.329-.225-22.431,1.809v2.171c2.831-.425 5.05-1.462 8.321-1.447 .067.603 1.896,2.237 1.805.722zm-15.919-.724c-.209.06-.87,2.928-1.447.724-.375.952-.433,2.22-.362,3.618 2.277-1.1 4.905-1.849 7.236-2.895v-1.809c-.844.31-1.559-1.265-1.809-.362 .869,1.534-4.258.906-3.618.724zm38.354,2.171c1.067.063 2.24.973 2.894.362v-1.809c-.884-.192-1.753-.373-2.894-1.085-.82.781.29,1.234 0,2.532zm5.06,1.809c.417-.428.41-1.279.362-2.171-.689-.155-.909-.779-1.81-.724-.74,1.386.17,2.525 1.45,2.895zm-47.394.362c.598.005.203,1.003.724,1.085 .808-.45 1.314-3.637 0-3.98-.527.992-.688,2.348-2.171,1.447-.23,2.643.063,4.761 2.171,5.065-.695-.902.552-1.486-.362-2.17-.106.337-.979.337-1.085,0 .981.259-.26-1.706.723-1.447zm49.564.723c.233-.838.446-2.847-1.085-2.895 .04,1.286-.26,2.915 1.08,2.895zm1.81.724c.491-.516.019-3.137-1.086-3.256 .53.922-.23,3.13 1.09,3.256zm11.22,25.326c-.696-1.915.187-4.57-1.085-6.513h-9.045c-.505,1.787-.353,4.23-.362,6.513 2.64-.222 8.38-.707 10.49,0zm17,7.236c-1.925,4.671-3.583,9.699-5.427,14.472-1.869,4.836-4.207,9.533-4.704,14.472 4.827-12.127 9.258-22.624 13.387-35.094-1.41,1.764-2.41,4.074-3.26,6.15zm-8.68,19.894c2.438-6.206 5.875-12.292 7.598-18.813 1.429-2.04 3.631-6.857 2.895-8.683-1.902,2.8-1.997,7.409-4.342,9.768 .417-3.353 3.682-7.613 2.533-10.13-1.363,2.737-1.933,6.269-3.618,8.683-1.217-3.269 3.818-6.892 1.809-9.768-1.116,2.501-1.439,5.796-3.256,7.598-.021-2.92 2.587-5.126 1.809-7.598-4.253,11.827-10.714,25.449-12.662,36.179 2.18-.111.714-3.868 2.895-3.979 .037,2.087-1.665,2.436-1.447,4.703 2.13-.523 1.189-4.116 3.617-4.341-.179,2.112-1.661,2.921-1.809,5.065 2.93-1.85 2.85-5.78 3.99-8.68zm-18.45-25.683c2.452-.001 6.337.788 9.406-.724-2.45-.261-6.78-.53-9.41.724zm-1.09,8.683c-.282-.08-.421-.303-.362-.724-3.375.104-6.126-1.048-6.512-2.894-.08.282-.303.42-.724.362-.006,4.509 4.381,3.931 5.427,5.789 .06-1.651 1.62-2.375 2.16-2.533zm-3.62,5.427c-.235-1.454-.005-3.372-1.447-3.618 .62,1.875-.79,3.707 1.45,3.618zm1.45,1.085c.642-.685.264-2.39.361-3.618h-1.085c.19,1.254-.54,3.432.72,3.618zm26.77,5.068c1.386.201 2.086-2.552.724-2.895-.32,1.207.14,1.767-.72,2.895zm-65.844,9.77c-.282-.08-.42-.303-.362-.724-1.04-.075-1.838.092-2.171.724 1.05.33 2.081.26 2.533,0zm19.894,16.28c-1.501-3.432.443-9.851-1.447-15.557-1.333,4.349.827,10.783-.724,13.386-1.972-2.045 1.123-10.86-2.171-13.386 .534,2.967.653,8.267 0,11.215-1.932-2.178.29-9.583-1.085-11.215-2.444,1.101.803,6.788-1.447,9.044-1.466-1.911 1.188-7.941-1.447-8.683-1.075,1.894.526,5.289-.362,7.598-1.975-1.161.527-6.799-1.447-7.959-1.184,1.711.677,6.465-1.085,7.598-.947-1.888.058-6.622-.362-7.959 .272,1.833-1.382-.777-1.447.362-.16.756.74,5.271-.362,6.512-.619-2.31-.835-4.841 0-6.874-3.473-.397-.664,5.958-2.17,6.512-1.651-1.142-.031-4.848-.724-6.15-2.389,1.029-.002,4.507-1.085,6.512-1.859-.553.412-5.236-1.447-5.789 .098,4.575-.391,10.698.362,15.558 6.966-.081 12.498.021 19.898,0v-15.919c-.824.497-1.36-.933-1.447,0 .4,4.8.94,12.2-.01,15.21zm3.98.72c.91-3.788-1.033-9.212.724-12.301-2.194-.282 1.146-3.849-1.447-3.618-.302,2.46.832,10.958-1.085,8.321 .221.865-.454,2.625.362,2.894-.263-.591.719-1.574.724-.724 .26.38-.73,5.09.74,5.43zm18.46-2.89c4.254-2.258 4.269-8.756 8.321-11.216-5.29-1.68-7.44,7.34-8.32,11.22zm5.06-3.98c2.615.52 4.588,1.683 6.512,2.895 1.34-2.64 3.305-4.655 5.065-6.874-2.712-.785-4.964-2.031-7.598-2.895-.68,2.92-3.93,3.29-3.98,6.86zm-3.26-3.98c.109-.953-.501-1.188-1.447-1.085-.29,1.29.78,1.79 1.45,1.08zm-3.25,2.89c.872-.148.786.661 1.809.362-.371-1.457.563-1.607 1.086-2.171-1.123.037-1.032-1.138-2.532-.724 .17,1.14-.66,1.28-.37,2.53zm12.3,9.41c.428.417 1.279.41 2.171.362 .948-5.16 4.64-9.243 7.236-11.577-5.2-.87-7.4,6.6-9.41,11.22zm3.62.72c.498-.016.795.17 1.086.362 .622-1.909 2.41-2.655 2.17-5.427 2.298.596 2.18-2.7 3.98-1.447 .833-1.662-.424-3.109-.724-4.703-2.66,3.04-6.32,6.94-6.52,11.22zm-16.65-7.6c.498-.016.795.17 1.086.362 .154-.689.779-.909.723-1.809-.688-.155-.908-.779-1.809-.723v2.17zm7.96,0c1.816.722 3.687,3.3 5.788,2.533-1.852-1.767-4.519-2.717-7.235-3.618-1.6,2.27-.61,1.44 1.44,1.09zm-1.8,1.45c-1.683,2.056-4.569,2.908-6.874,4.341 4.13.972 9.714.174 12.663,1.447-.34-3.53-1.93-5.79-5.79-5.79zm19.53,1.81c-.811-.396-1.812-.599-2.532-1.085-.005.719-.987.46-.724,1.447 1.4.79 2.82-.2 3.25-.37zm-2.53,8.68c.849-2.619 4.467-6.021 2.894-8.683-1.13,2.47-5.93,5.46-2.89,8.68zm-3.62-4.7c1.342-.469 1.296,2.283 2.171,1.085-.781-.805 1.354-1.764 1.085-3.256-1.14.175-.819-1.111-2.171-.724-.19,1.14-.64,2.02-1.09,2.9zm-8.32,127.71c-.253-1.114-.253-.695 0-1.81-.622.144-.928-.536-1.086,0 .63-.02-.39,1.86 1.09,1.81zm2.17,7.6c-.483-.641.028-1.53-1.086-2.171-.23,1.11.63,2.95 1.09,2.17zm1.45,11.94c.524-.916-.557-3.667 0-4.704-.623.144-.928-.536-1.086,0 1.45.76-.28,3.23 1.09,4.7zm1.08,7.23c.329,3.684.736-3.291-.724-3.256-.19,1.53.63,2.03.72,3.26zm.73,5.07c-.082,4.794 1.073-1.625-.361-1.447-.03.63.08,1.13.36,1.45zm-20.99,2.89c-.334-.631.013-1.942-1.085-1.81 .04.93.07,1.87 1.08,1.81zm22.44,9.77c1.522-.559.058,1.872 1.085,1.809 .468-1.045.081-1.868-.724-2.532 .795-.407.795-1.402 0-1.81 .61,1.21-.23,1.24-.36,2.53zm-17.37,12.3c-.626-.821.14-3.034-1.085-3.256-.01,1.47.11,2.8 1.09,3.26zm20.62,2.17c-.264-.822.652-2.823-.724-2.533 .51,1.06-.42,1.78.72,2.53zm10.49,35.1c.058-1.143.013-2.184-.724-2.532-.08.83-.17,1.83.72,2.53zm5.43,34.73c1.24,4.68 2.14,1.1 0,0zm5.07,14.11c-.184-.901.012-2.183-1.085-2.171 .27.81.2,1.96 1.08,2.17zm8.68,28.22c.272-.968.53-3.508-1.085-3.618 .93,1.38.16,2.22 1.08,3.62zm9.04,9.77c-1.77.59-4.101,1.062-3.256,3.256 1.017.91 1.357-1.049 2.532-1.085 .721.365 1.546.625 1.81,1.447 .263,1.106-.624,1.063-.362,2.171 1.245,2.011 3.119,3.394 4.704,5.064 2.089-.808 3.492.385 3.979,2.171 1.695-.357 3.988,2.102 4.703.362-6.39-2.76-10.2-8.11-14.1-13.38zm-23.88,17c.535.419.912.419 1.447,0 2.612,1.841 3.066,5.391 6.512,6.513s6.892-.691 10.492,0c-3.577,1.8-9.387,1.626-13.386.361-.138,1.585 1.033,1.86 1.085,3.257-.818,5.57-1.672,15.079 4.703,16.643 3.563.873 9.762-.167 14.11-1.086 4.143-.875 8.099-1.95 12.663-2.532 17.166-2.19 30.715-9.028 36.902-21.346-6.566-5.438-14.146-.186-21.346.724-3.762.475-4.247-.42-5.789-1.086-5.81-2.51-13.247-1.677-18.451-5.427-3.124-2.251-4.155-4.97-7.235-7.959-6.591,3.781-10.205,10.537-19.537,11.577 .193-1.52-1.162-1.491-1.447-2.533 2.988.181 1.125,2.478 3.618,1.447-.481-.363-1.347-.342-1.447-1.085 .961-.004 2.066.137 2.532-.362-.241-1.447-1.088-2.289-1.447-3.617-2.097,1.377-5.106,2.609-4.342,5.788 1.639.493.414-1.625 1.81-.361 .14,1.52-1.36.5-1.41,1.1zm71.64,8.69c-5.881,6.669-14.081,11.033-23.154,13.748 1.334.429 3.505-.298 5.065-.724v1.085c1.387.066.131-.296.361-1.085 10.934-2.936 18.769-8.969 22.432-19.175-.674.346-1.21-1.084-1.447,0 .27,1.44-1.76,4.44-3.26,6.14zm-44.5,17.36c-4.762,2.304-12.301,1.781-17.005,2.532 5.61,2.72 12.5,1.425 17.366-.361-.35-.9 1.28-2.18-.37-2.17z"></path>
	<path d="m115.59,241.32c-.54,10.225 4.967,17.437 5.427,27.858-3.218-8.48-4.431-18.965-7.598-27.497-.628,1.177-1.536,1.035-2.533.723-.447,1.171 1.171.277.724,1.447-.528-.315-1.401-.287-1.085-1.447-1.248-.675-2.112,1.167-3.256-.361-.982-.259.259,1.706-.723,1.447 1.792.017.501,3.116 1.809,3.618-1.333.955-.917-2.93-2.17-3.256-1.361,1.566.596,3.232 1.085,5.065 1.175,4.404 1.897,9.824 3.256,14.11-2.835-6.132-4.104-15.206-5.789-21.346 3,.43 6.65-.25 10.86-.36z"></path>
	<path d="m112.33,256.87c-1.37-.41-1.642-3.255-2.171-5.427-.548-2.249-1.179-4.871-1.447-6.874 .104-.638-1.704-1.12-.724-1.447 2.46,2.24 2.37,9.86 4.34,13.75z"></path>
	<path d="m152.85,365.05c-1.44-1.06-.979,1.368-2.17.362 .25-1.196 2.061-.834 1.809-2.533 .291.191.587.378 1.085.362 .52,1.37-1,.7-.73,1.81z" fill="#fff"></path>
	<path d="m158.28,50.651c1.09.472.209,3.188 2.532,3.256-6.403-8.381.588-19.65-3.256-28.582 7.326-3.363 7.274,6.639 11.216,9.045 .627-2.044-2.746-2.977-2.171-6.15-.818-1.714-2.339-2.727-3.618-3.98 .756-6.217.89-12.462 2.895-18.09 5.322,2.999 1.504,15.139 5.788,19.175-1.681-5.733-.688-15.035-3.979-20.26-.872-.148-.786.661-1.809.361 .247-1.562.977-2.641 1.447-3.979 3.521.841 1.703,8.472 4.341,9.045-1.707,1.844-.562,6.395.362,8.321 .331,6.004 1.812,17.479 1.447,25.688-.183,4.118-1.347,6.98-3.618,9.045-1.578-.015-1.981-.526-3.256,0 .138,1.345 2.169,1.956 2.532.361 1.582.828.506,2.697 2.171,2.895 .395,7.591 5.415,13.62 5.427,22.793-3.19-7.331-5.182-17.692-7.236-24.964 .59,8.215 4.294,16.449 5.789,24.964-8.878-.44-19.385-3.803-26.411-8.321 3.081-6.808 6.668-13.11 9.769-19.898-.04-.684-1.196-.251-1.085-1.085-.86-.728.4.158.72.36zm11.94,14.834c-.312-3.064-.731-6.022-1.809-8.321 .47,2.912.74,6.011 1.81,8.321zm-1.81,1.085c-.673-2.342-.401-5.628-1.447-7.598 .33,2.689.31,5.723 1.45,7.598zm-3.25.362c.355,2.783.443-1.869.361-2.895-.076-.406-.401-.563-.724-.724-.22,1.541.25,2.394.36,3.619zm7.23,10.13c-.438-4.023-1.155-7.769-2.171-11.216 .32,4.139 1.12,7.8 2.17,11.216zm-4.34-10.13c.05,4.078 1.74,2.97 0,0z" fill="#fff"></path>
	<path d="m112.33,35.094c1.292.601.718.971 1.085,2.17 .785.061.164-1.283.362-1.809 1.298.39 2.466.91 3.979,1.085-.115,2.817.481,4.204 0,6.512-.734-1.075-2.675-.942-3.979-1.447v-3.256c-1.13,1.168-.048,2.268-.724,3.256-1.428-.544-3.045-.561-3.98-.724-.003-.961.137-2.066-.362-2.533-.809.156-.146,1.783-.362,2.533-8.046-1.228-15.383-.258-22.069,1.447v-2.171c-.709-.175-1.165,1.659-.362,1.809-1.541.871-3.389,1.436-4.703,2.533 1.056-.585.397-.891.362-2.171-.881.628-.227,2.586-2.895,2.171 .262-1.107-.624-1.064-.362-2.171-.884.805.366,3.742-1.809,3.256v-2.532c-.431,2.419-1.849,5.36-.724,6.512-2.087-.571-.619-5.211 0-7.598 7.442-5.911 19.242-6.421 31.115-7.236 .087-.006-.157-.573-.362-.362 1.02.17 4.05,1.19 5.78.726z" fill="#fff"></path>
	<path d="m94.605,47.395c-3.271-.015-5.49,1.022-8.321,1.447v-2.171c6.103-2.033 13.007-2.069 22.431-1.809v1.085c.856-1.112 4.124-.598 4.704.723 1.169-1.468 3.05.186 4.703.362v2.533c-.911-1.381-4.317-.266-4.341-2.533-.367,2.064-1.492.069-2.895.362-2.74.572-9.967-1.321-15.557-.362-.509,1.765 2.191.446 1.085,1.085 .098,1.517-1.731-.117-1.803-.722z" fill="#fff"></path>
	<path d="m84.113,46.671c.25-.903.965.671 1.809.362v1.809c-2.331,1.045-4.958,1.795-7.236,2.895-.071-1.398-.013-2.666.362-3.618 .578,2.204 1.238-.664 1.447-.724-.639.182 4.488.81 3.618-.724z" fill="#fff"></path>
	<path d="m115.59,58.611c-.178.913 1.795-1.009 1.447.724-2.936-.283-3.335,1.971-6.15,1.809v-1.447c1.392-.056 2.115-.779 2.171-2.171 2.631-.983 6.628-2.626 7.959,1.085-.536-.188-.912-.535-1.447-.724-.001,1.835 1.267.156 1.809,1.447 .933-.087-.497-.623 0-1.447 1.743,1.204 4.985,2.66 4.342,5.065-2.476-1.263-3.763-3.715-7.598-3.618-.531-.853-.764-.673-.362-1.809-1.1-.016-1.41.765-2.17,1.086z"></path>
	<path d="m166.96,58.973c1.046,1.969.774,5.255 1.447,7.598-1.14-1.876-1.12-4.91-1.45-7.598z"></path>
	<path d="m90.626,66.57c3.115-1.467 5.551-3.614 8.683-5.065 3.07,1.633 5.669,3.737 9.044,5.065 .141,2.495.292,4.308 0,6.874 .128.507.637.031.724-.362 .224,3.427 1.202,9.85 0,12.301v-9.407c-1.1.347-.732,2.162-2.532,1.809 .651,1.64.256,4.326.362,6.512-1.47-.701-.396-3.946-.724-5.789-.9.04-1.12.678-1.809,0v6.512c-.22.865.454,2.625-.362,2.894v-2.894c-.785-1.265.105-4.206-.724-5.427-.561.404-.753,1.176-1.809,1.085-.417,1.718.839,2.96 0,3.98-.918-.835-.52-1.613-.362-2.895-.846.119-1.495.435-2.17.724 .215,1.295-.071,2.884.362,4.703-1.48-1.173-.193-5.113-1.447-6.512-.638.32-.598,1.605-1.447.724-.385,1.597.715,2.796 0,3.618-1.858-.731.626-3.882-1.085-4.342-1.017-.052-1.043.886-1.085,1.809-.809-.156-.146-1.783-.362-2.533-5.579-2.109-2.934-8.148-3.26-13.384zm9.044,14.11c1.876-1.862 4.375-3.102 6.875-4.341 .443-3.299-.491-5.962.362-9.045-4.701-2.283-6.571-5.247-10.492-2.895-1.568.941-3.345,1.911-5.065,2.895v8.683c3.117,1.919 5.054,3.542 8.327,4.703z"></path>
	<path d="m125,69.827c-1.983-1.614-2.197-5.33-4.704-5.427-.475.128-.569.637-1.085.724 .907,2.186 1.194,6.287-1.447,6.874-5.268-3.136 1.066-10.672 5.427-7.959 1.4.877 2.21,3.642 1.8,5.788zm-6.88-1.086c1.032-1.101-1.45-1.85.724-1.809 .053-.897.067-1.756-.724-1.809-1.007.538.765,1.617-.724,1.447-.08,1.04.09,1.838.72,2.171zm.36,2.171c-.198-.525.423-1.87-.362-1.809-.36.745-1.29,1.835.36,1.809z"></path>
	<path d="m128.61,78.51c.01-2.282-.143-4.726.362-6.513h9.045c1.271,1.943.389,4.598 1.085,6.513-2.1-.707-7.84-.222-10.49,0z" fill="#fff"></path>
	<path d="m101.84,70.188c1.411,7.073-7.739,5.89-5.789,0 2.353-1.499 3.629-1.745 5.789,0z" fill="#fff"></path>
	<path d="m125.72,91.172c-1.046-1.858-5.434-1.279-5.427-5.789 .42.059.644-.08.724-.362 .386,1.846 3.137,2.998 6.512,2.894-.059.421.08.644.362.724-.53.159-2.09.883-2.16,2.533z" fill="#fff"></path>
	<path d="m143.45,114.33c.147-2.144 1.63-2.953 1.809-5.065-2.428.225-1.487,3.818-3.617,4.341-.218-2.267 1.484-2.616 1.447-4.703-2.181.111-.715,3.868-2.895,3.979 1.948-10.73 8.409-24.353 12.662-36.179 .778,2.472-1.83,4.677-1.809,7.598 1.816-1.801 2.14-5.096 3.256-7.598 2.01,2.876-3.025,6.499-1.809,9.768 1.686-2.414 2.255-5.946 3.618-8.683 1.148,2.517-2.116,6.777-2.533,10.13 2.345-2.359 2.439-6.968 4.342-9.768 .736,1.826-1.466,6.643-2.895,8.683-1.723,6.521-5.159,12.607-7.598,18.813-1.15,2.9-1.07,6.83-3.99,8.69z" fill="#fff"></path>
	<path d="m84.113,109.99c.333-.632 1.131-.799 2.171-.724-.059.42.08.644.362.724-.452.26-1.483.33-2.533,0z" fill="#fff"></path>
	<path d="m106.54,111.07c.087-.933.623.497 1.447,0v15.919c-7.4.021-12.933-.081-19.898,0-.753-4.86-.264-10.983-.362-15.558 1.859.553-.412,5.236 1.447,5.789 1.083-2.005-1.303-5.483 1.085-6.512 .693,1.303-.928,5.008.724,6.15 1.506-.554-1.303-6.91 2.17-6.512-.835,2.033-.619,4.564 0,6.874 1.102-1.241.202-5.756.362-6.512 .065-1.139 1.72,1.472 1.447-.362 .419,1.337-.585,6.072.362,7.959 1.762-1.132-.098-5.887 1.085-7.598 1.975,1.161-.528,6.798 1.447,7.959 .888-2.309-.713-5.704.362-7.598 2.635.741-.019,6.772 1.447,8.683 2.25-2.257-.997-7.943 1.447-9.044 1.375,1.632-.846,9.037 1.085,11.215 .653-2.948.534-8.248 0-11.215 3.294,2.526.199,11.341 2.171,13.386 1.55-2.603-.609-9.037.724-13.386 1.891,5.707-.054,12.125 1.447,15.557 .95-3 .41-10.4 0-15.19z" fill="#fff"></path>
	<path d="m133.32,120.48c2.717.901 5.384,1.852 7.235,3.618-2.102.768-3.972-1.811-5.788-2.533-2.06.34-3.05,1.17-1.45-1.09z" fill="#fff"></path>
	<path d="m149.24,125.18c-.264-.987.719-.729.724-1.447 .72.486 1.722.689 2.532,1.085-.43.17-1.85,1.16-3.25.36z" fill="#fff"></path>
	<path d="m47.572,208.76c.424.058.305.659.362,1.085 .491-.112.3-.906.362-1.447-2.405,1.348-3.942,5.799-5.789,9.407-1.905,3.721-3.368,7.868-5.789,10.492 .415,1.5-.761,1.41-.724,2.533-.337-3.445 2.78-6.891 4.342-9.407 2.791-4.495 3.961-11.015 7.236-15.195-1.074-5.386 1.748-9.436 5.065-11.578 1.391-17.818-1.708-41.389-.362-56.078 .655-7.138 6.242-9.997 13.025-10.492 6.439-.47 9.431-.378 16.643-.724-10.091,4.043-27-2.916-28.582,11.939-1.074,10.084.08,26.517.362,36.542 .168,5.983-.588,11.895.362,18.451 1.505-12.587.413-36.863.362-52.822 1.699,10.479.08,25.071 1.085,35.094 .62,6.176-1.604,12.357.724,17.005 1.527-2.679 1.067-8.98 1.085-14.834 1.734,2.931-.401,7.878.723,10.492 1.589-2.632 4.276-4.166 3.618-9.045 .606-1.042.288,1.849.362,2.533 1.8-1.336 2.444-3.828 3.98-5.427-.611-1.439-.284-3.816-.362-5.789-.071-.748-.013-4.152.362-2.171 .038,2.835-.052,5.244.361,6.875 1.666-2.676 4.44-4.243 4.342-8.683 .424.058.305.66.362,1.085 2.992-2.418 3.705-5.387 6.15-8.683-4.042-9.562.038-21.58 9.045-23.517-6.759,3.362-12.001,11.993-8.683,22.07 1.767-.405 1.59-2.752 2.895-3.618-1.313-6.312 1.642-11.342 5.427-13.748-1.045,3.057-5.658,5.677-4.703,11.939 2.1-1.396 3.088-3.906 3.979-6.512 1.152-.295 2.281-.613 2.533-1.809 4.605-3.905 14.51.222 14.11,7.236-.222,3.889-4.915,6.681-1.809,10.492-.154-1.118.325-2.383 0-4.341 1.651-.445-.034,2.446 1.085,2.532 2.535-3.871 4.087-10.741.362-15.919-1.388-1.929-3.93-3.591-6.15-4.341-.874-.295-2.763.839-2.895-1.085 11.944-.913 16.533,16.675 8.321,23.155 .606.6.288,2.124.362,3.256 1.08-.006 1.23-.941 2.171-1.085-1.037-1.822-.047-4.518 0-.724 10.499-9.235 3.054-25.312-7.598-28.22-.854-.233-1.905,1.294-2.171-.723 12.411,1.23 19.872,13.54 15.195,25.326-1.503,3.787-5.951,4.175-5.427,9.768-.868.308.085-2.125-.724-2.532-2.53-1.272-.799,9.273-1.809,10.854v-2.17-1.809c-.456-2.213-.791-6.277.362-7.959-3.696,2.376-1.452,11.453-1.809,16.643-2.209-3.986.903-11.288-2.171-13.025v11.216c.299.857-.51,1.667-.362.362-.432-3.252.157-6.487-.724-11.216-1.635,1.259-.28,5.509-.724,7.959-1.835-5.516-.235-9.64-1.447-13.386 .58-.596 1.352.162 2.171-.724-.152-.812-1.92-.01-2.171-.724-1.79,4.071.066,5.659-1.085,6.874 .268,4.064.991,9.021-.362,11.939-.5-2.851-.868-8.71-.724-13.387-2.718,3.495-1.054,11.403-1.447,16.281-1.396-3.989-.767-9.897-.724-12.663-2.375,1.038-1.603,1.758-3.256,3.979-.076,10.18 1.085,16.49 0,26.773-.31,2.935-.313-.434-.362-1.809-.233-6.643.035-17.887-1.085-23.878 .63-.681 1.394.495.724-.723-1.003-.862-1.714,1.647-2.533,2.17 1.171.447.277-1.17 1.447-.724-4.009,7.568-9.243,13.912-14.11,20.623 2.051,8.304-.708,15.847-7.598,17.366-.304.42-.477.97-.362,1.809-.469-.979-1.377-1.517-2.533-1.809-.798,4.69-6.985,10.278-4.341,18.09 .317,1.161-.938.75-1.085,1.447 .754,2.746 4.046,3.202 3.618,6.151-4.643-1.146-4.482-7.095-5.789-11.578-1.839,2.752-2.753,7.922-6.15,7.959 .571-1.118 1.101-2.276 1.447-3.618 .683.271.251,1.08 1.085.362-.146-1.995 1.85-3.896 2.532-6.15 .77-.354 1.847.345 2.171-1.085 .111-.735-1.045.074-1.085.362-.893-1.153 1.459-2.145 1.447-3.618 1.137.504-.498,1.785.362,2.17 .112-4.245 2.299-5.294 3.979-10.492-5.713,7.553-9.631,16.9-15.195,24.602 .839-4.156 4.097-8.128 6.513-12.301 2.332-4.029 4.672-8.29 6.874-12.301-.421.059-.644-.08-.724-.362-1.189-1.047-1.181,2.18-2.533,2.17-.094-1.059.818-1.111.724-2.17-2.362-1.92-6.11-4.25-6.151-7.26zm47.395-45.23c.7-1.297-.139-1.326-.362-2.533 7.66-4.416 6.385-20.2-6.15-16.281-.586,1.102-1.431,1.946-2.533,2.533-8.416,16.428-19.763,29.924-28.582,45.948 4.488-.841 7.955,1.742 10.492,3.98 7.052-10.314 13.732-21 21.708-30.391-7.018,10.589-14.261,20.954-21.708,31.114 .365.72.625,1.545 1.447,1.809-1.448-3.267 2.463-1.581 1.085-3.618 .719-.603.46.033 1.447,0 .148-.872-.661-.786-.362-1.809 3.732-3.503 5.368-9.103 9.769-11.939-.514-2.999 4.601-6.441 5.789-10.13 .999.988.339-.53 1.085-.724 .086.393.596.869.724.362-.583.155-1.214-1.349-.362-1.447 .834-.11.402,1.045 1.085,1.085 .379-1.378-1.456-1.11-.362-2.171 .57.033.283.923 1.085.724 .414-1.138-.568-.879-.724-1.447 1.938-1.921 2.976-4.743 5.065-6.513-.254.28-.899,1.79.364,1.46zm-3.979,5.07c.253-.62 2.257-1.323 1.085-2.171-.192.68-1.905,1.67-1.085,2.17zm-26.773,39.79c-.577-.268.083-1.771-1.085-1.447 1.139,1.994-.942,4.411.724,6.874 .041-.441.108-.856.724-.724-.785.934.332,2.051 1.085,1.085-1.22-.024-.064-.827-1.085-1.447 8.07-5.596 3.457-18.806-5.789-18.813-12.475-.01-14.344,19.119-1.085,20.623 .019-1.586.253-3.389-1.085-3.618-.386.337-.113,1.335-1.085,1.085 .681-2.611-2.03-1.829-2.533-3.256v-7.959c2.428-.828 4.658-1.855 7.236-2.533 3.123,1.793 4.677,3.947 4.704,7.236 .062-.542-.129-1.335.362-1.447 .159,1.904.464,4.573-.362,6.512-.232-1.456.47-3.847-.362-4.703-.176.644-.386-.157-.724-.362 .026.85 1.539,2.05.36,2.9zm-1.809,1.09c.021-.221.054-.429.362-.362-.057-.426.062-1.027-.362-1.085 .064,1.016-1.222.772-1.447,0 .42-.304.97-.478 1.809-.362-.085-2.746.748-8.147-2.171-6.874 .318-1.163-1.192-.496-1.085-1.447-1.858,1.036-4.565,1.223-5.789,2.894 .173.989.351,2.729.362,5.427 1.676.683 3.125,2.039 4.703,1.809 .155.8-2.173.905-1.085,1.447 .601-.542.971.148 2.17-.362 .271-1.114-1.247-.441-.724-1.809 .684.081.798-.408 1.447-.362 .016.498-.17.794-.362,1.085h1.447c.051-1.52.239-.09.725-.02zm-1.809,4.7c1.138-.415.879.568 1.447.724 .035-.568-.048-1.254.724-1.085-.562-1.348-.065-3.197-.362-3.98-1.898.15-1.561,2.54-1.809,4.34zm-1.448.73c1.002-.222 1.028-3.29.362-3.98-1.24.09-1.716,3.53-.362,3.98zm-7.235-2.17c-.934-.031-.38-1.549-1.809-1.085-.349,1.1 1.777,1.54 1.809,1.08zm2.894,22.06c-.319-2.454-.104-5.443-.724-7.598-.479,1.9-.981,6.71.724,7.6zm43.054-71.63c-.5-.962-1.412.696-.724.724 .086-.555.596-.053.724.362-1.427-.221-.426,1.986-.724,2.895 1.255.175.923,1.374.724,2.17 1.413.086 1.309-1.344 1.809-2.17-1.138-.415-.879.568-1.447.724 .03-2.505.944-4.877-.362-5.427v.74zm-1.086-3.62c1.86.142-1.461,2.752 1.085,2.894 1.014-.93.132-5.3-1.085-2.89zm-1.447,8.32c1.47.539 1.638-3.38.362-3.256-1.053.81-.143,1.48-.362,3.26zm3.98-1.44c1.676.229.916-1.979 1.085-3.256h-1.085c.001,1.13-.852,2.36.004,3.26z"></path>
	<path d="m94.605,162.08c-2.089,1.77-3.126,4.592-5.065,6.513 .155.568 1.138.309.724,1.447-.802.199-.516-.691-1.085-.724-1.094,1.061.741.793.362,2.171-.684-.04-.251-1.196-1.085-1.085-.853.099-.221,1.602.362,1.447-.128.507-.637.031-.724-.362-.746.194-.086,1.712-1.085.724-1.188,3.689-6.303,7.132-5.789,10.13-4.4,2.836-6.036,8.436-9.769,11.939-.299,1.023.51.938.362,1.809-.987.033-.729-.603-1.447,0 1.377,2.037-2.533.351-1.085,3.618-.822-.264-1.082-1.089-1.447-1.809 7.447-10.16 14.69-20.525 21.708-31.114-7.976,9.39-14.656,20.076-21.708,30.391-2.537-2.238-6.004-4.821-10.492-3.98 8.819-16.024 20.166-29.52 28.582-45.948 1.102-.586 1.946-1.431 2.533-2.533 12.535-3.919 13.811,11.865 6.15,16.281 .223,1.207 1.062,1.235.362,2.533-1.265.33-.62-1.18-.364-1.45zm-3.979-14.47c2.288-1.654 4.254,1.891 6.512,2.533-.521-2.07-5.274-5.76-6.512-2.53zm-3.98,7.96c2.038-1.768.568-4.218 1.085-6.15 .899-.668 2.042-1.094 2.533-2.171-4.613.36-3.065,5.2-3.618,8.32zm9.769-1.45c.241-1.895.759-1.361.724-3.256-.825.497-1.36-.933-1.447,0 1.556,1.2-.65,2.81.723,3.26zm.361,2.54c.431-.775.391-2.021 1.085-2.533-1.269-.29-1.565,2.26-1.085,2.53zm-3.256-1.09v.724c.463.02.501.464 1.085.362-.081-.684.408-.798.362-1.447-.684-.07-.798.42-1.447.37zm-5.789.73c.684.04.251,1.196 1.085,1.085 .152-1.429 1.504-1.138 1.809,0 .845-.112 1.495-.708 2.17,0-.935-.97-3.472-2.2-5.064-1.08zm4.342,7.23c.281-1.612 3.909-3.453 2.171-4.703-.353,1.7-3.06,2.96-2.171,4.7zm-21.346,20.62c2.57-4.064 6.971-8.224 7.959-12.663-2.101,4.53-6.772,8.42-7.959,12.66zm2.895,1.09c.113-.645 1.913-1.417.724-2.171 .06.82-1.741,1.59-.724,2.17zm-4.704,5.79c2.303-.954 2.765-3.747 4.342-5.427-1.924,1.33-3.048,3.46-4.342,5.43z" fill="#fff"></path>
	<path d="m97.862,162.45c1.306.55.392,2.922.362,5.427 .568-.156.309-1.138 1.447-.724-.5.827-.396,2.257-1.809,2.17 .2-.797.531-1.996-.724-2.17 .298-.908-.704-3.115.724-2.895-.128-.415-.637-.917-.724-.362-.688-.027.224-1.686.724-.724v-.73z" fill="#fff"></path>
	<path d="m129.34,152.32c-.682-3.076-1.242-8.998-.724-14.833-.041.464-.298-2.34.362-.724 .3,5.71.24,9.36.36,15.55z"></path>
	<path d="m89.179,139.65c.815.722-1.201,1.673-2.533,1.447 .456-.87 1.924-.73 2.533-1.45z"></path>
	<path d="m95.691,150.87c.087-.933.623.497 1.447,0 .036,1.895-.482,1.361-.724,3.256-1.372-.46.834-2.07-.723-3.26z"></path>
	<path d="m92.073,166.43c1.172.848-.832,1.551-1.085,2.171-.82-.5.893-1.49 1.085-2.17z" fill="#fff"></path>
	<path d="m103.29,177.64c-.753-2.165-.039-3.746-.362-6.512 .74,1.32.65,4.6.36,6.51z"></path>
	<path d="m78.687,171.49c-.989,4.439-5.389,8.599-7.959,12.663 1.186-4.24 5.857-8.13 7.959-12.66z"></path>
	<path d="m73.26,185.6c-1.577,1.68-2.039,4.474-4.342,5.427 1.294-1.97 2.418-4.1 4.342-5.43z"></path>
	<path d="m63.853,205.5c.338.205.548,1.006.724.362 .832.856.129,3.247.362,4.703 .826-1.939.521-4.608.362-6.512-.491.112-.3.906-.362,1.447-.026-3.289-1.581-5.443-4.704-7.236-2.578.678-4.808,1.705-7.236,2.533v7.959c.502,1.427 3.214.645 2.533,3.256 .973.25.699-.748 1.085-1.085 1.338.229 1.104,2.032 1.085,3.618-13.259-1.503-11.39-20.632 1.085-20.623 9.246.008 13.859,13.218 5.789,18.813 1.021.62-.135,1.423 1.085,1.447-.753.966-1.87-.151-1.085-1.085-.616-.133-.683.282-.724.724-1.666-2.463.415-4.88-.724-6.874 1.168-.324.508,1.18 1.085,1.447 1.181-.86-.332-2.06-.36-2.9z" fill="#fff"></path>
	<path d="m61.682,209.48h-1.447c.191-.291.377-.587.362-1.085-.649-.046-.763.443-1.447.362-.523,1.368.994.694.724,1.809-1.199.51-1.569-.18-2.17.362-1.088-.542 1.24-.647 1.085-1.447-1.578.23-3.027-1.126-4.703-1.809-.011-2.699-.188-4.438-.362-5.427 1.223-1.671 3.931-1.858 5.789-2.894-.107.951 1.404.285 1.085,1.447 2.918-1.273 2.086,4.128 2.171,6.874-.839-.116-1.389.058-1.809.362 .225.772 1.512,1.016 1.447,0 .424.058.305.66.362,1.085-.308-.067-.341.141-.362.362-.487-.07-.675-1.5-.725,0z" fill="#fff"></path>
	<path d="m109.8,201.16c.812,1.814.09,5.079.724,6.15-1.29-.46-.81-4.27-.72-6.15z"></path>
	<path d="m50.105,211.65c1.428-.463.875,1.054 1.809,1.085-.032.46-2.158.02-1.809-1.09z" fill="#fff"></path>
	<path d="m47.934,226.48c.589,1.445-1.573,3.243-2.171,4.704-.546-.05 1.684-3.29 2.171-4.7z"></path>
	<path d="m35.271,231.19c-1.147,2.953-2.175,6.025-4.341,7.959 2.061-2.75 1.756-5.69 4.341-7.96z"></path>
	<path d="m44.678,232.27c.589,1.443-1.771,3.044-2.171,4.703-.645-1.49 1.842-2.97 2.171-4.7z"></path>
	<path d="m40.336,251.09c-1.065-.742.277-2.106.724-2.533-.315-1.069-.542.839-1.447.362 1.809-1.094 3.374-7.306 4.703-8.321 .843-.644 1.473.448 1.085-1.809 .64.679 1.056-.431 1.809.362-1.338,1.376-1.851,5.301-3.618,5.065-.411,2.74-2.075,4.09-3.256,6.87z"></path>
	<path d="m30.568,239.87c.167,1.53-3.253,7.572-4.342,9.045-.692-2.3 3.243-6.14 4.342-9.05z"></path>
	<path d="m39.613,240.59c.801,1.775-1.993,3.064-2.171,5.065-.676-1.65 2.1-2.96 2.171-5.07z"></path>
	<path d="m54.446,401.95c1.054,2.229.203,5.623-2.171,5.789 .106,1.26.979-.03 1.085.724-2.669,7.461-5.109,15.151-8.321,22.069 1.055,3.769 6.617,3.031 9.769,4.703-1.22,8.289-3.549,18.217.724,26.411 7.402,6.586 22.773,5.159 26.049,16.643-1.597,4.313-4.97,4.843-9.769,6.15 1.083-3.5 6.764-2.401 7.959-5.789 .383-1.963-1.101-2.274-.362-3.617-.486.072-.674,1.502-.724,0-.806.369.473,1.663 0,2.894-6.533,6.543-23.71,6.608-32.562,3.257 1.085,4.25 5.193.63 7.236,4.341-6.125-1.087-13.103-4.191-17.728-7.959-.102-.584.342-.623.362-1.086-2.798-.096-3.888-1.9-5.065-3.617 2.076-1.359 4.186,2.554 5.789,3.979 1.684.487 3.077,1.265 3.98,2.532 9.657,2.972 29.248,5.233 36.179-2.171-1.547-12.197-19.419-6.738-23.155-16.28 1.485,1.212-.31-4.109-.724-3.256-3.037-7.812-.626-14.733 0-21.347-2.253-1.605-5.825-1.894-8.321-3.256-.918,1.614-1.559,3.507-2.171,5.427 .877,1.486 2.078.512 4.342.724 1.875,1.643.958,5.584 1.447,9.045 .63,4.467 3.5,7.225 3.979,10.492 .806.324 1.812,1.401 1.085,2.171-4.713-5.023-7.461-11.499-7.236-20.622-3.914.464-7.687-1.584-11.578-1.81-.046-.648.443-.763.362-1.447-2.82,1.057-12.023-4.78-10.13-10.491 1.726.048.481.819.723,2.17 1.408-.16 1.081-2.055 1.447-3.256-.88-.973-2.888-.015-3.979,0 .026,5.694-2.849,9.175-2.895,13.748-7.182,1.476-9.404,9.886-4.703,15.558 1.628,1.964 4.826,3.625 7.236,6.15 3.688,3.864 5.911,7.522 9.045,11.216-1.572-.477-1.092-.32-1.447.724-1.386-.509-.905-3.694-2.533-2.895 .128-.476.637-.569.724-1.086-.269-1.564-1.953.531-1.809-1.446-1.262.938 1.304,1.08 1.085,2.17-4.276-2.959-10.638-3.833-12.301-9.406-.352.01-.281.443-.362.724-4.983-2.881-5.9-21.199.724-20.261-.161-1.324 1.704-2.332 3.256-2.171 .365-.826-.211-1.827-.362-2.532 .238-1.084.773.346 1.447,0 .25-.973-.748-.699-1.085-1.086 1.11-1.377.934-5.303 2.895-4.703-1.45-1.781-.558-4.228.362-5.788 1.775-.266 3.375-.562 5.065,0 7.663-20.679 13.827-42.855 20.984-64.038-4.795-5.676-3.724-17.689 1.447-22.069 1.644.731-.583,2.42-1.447,2.895-4.462,6.394-2.033,17.557 3.618,20.983-1.246,2.854-1.292,6.909-3.256,9.045 .31-3.405 2.754-6.275 2.17-9.406-1.939,1.678-1.435,5.801-3.256,7.598-.045-3.438 2.144-5.492 1.809-8.683-4.369,13.105-11.146,31.671-15.558,48.48-1.94,7.395-6.43,14.962-7.236,20.983-.146,1.097 1.247,1.997 2.171,2.895 .91-.296.504-1.907 1.085-2.532 .728,1.274-1.267,3.399.724,4.341 .714-.25.964-.965 1.085-1.809 .874.693-.523,1.887.362,2.895 .973.249.699-.748 1.085-1.086-.411.478 1.964,3.075 2.17.724 .098,1.406 1.504,1.763 1.085,2.895 1.1-.52 1.441-.788 2.533-.361 1.717-2.986 1.935-7.472 4.341-9.769-1.276,3.065-2.292,6.391-3.618,9.406 .69,2.279 1.458.797 2.532,1.81-.409-1.136.104-.956-.361-1.81-.368.235-.375.832-1.085.724 .129-2.403 1.586-3.479 1.809-5.788 .815,1.574 1.205-.406 2.895,0-.449-1.368-1.396.391-.724-1.447-.747.217-1.37.56-1.085,1.809-1.297-1.496.767-5.361 1.809-6.874 1.089-5.664 3.804-9.703 5.065-15.195 .476.128.569.637 1.085.724-.968-3.594 1.228-4.023 1.085-6.513 .841.318.969.318 1.809,0 .171-1.555-.974-.463-1.085-1.085 .092-2.375 1.554-2.996 1.447-4.703 .573-.03 1.38.174 1.447-.362 .888,1.03-.84,2.521-.724,3.979-.829.21-.396-.95-1.08-.99zm-28.22,28.95c.346-.674-1.083-1.209 0-1.447 .021.221.054.429.362.362 .58-1.008-1.562-1.001-1.447-.362 .96-.11-.339,2.03 1.085,1.45zm-13.386,22.43c-.081-.685.408-.799.362-1.447-.516-.087-.61-.596-1.085-.724 .037.92.204,1.72.723,2.17zm6.512,10.49c1.831-.132 2.562,2.729 3.618,2.171-.341-5.61-6.568-8.355-9.769-12.302-.948,4.96 4.152,6.92 6.151,10.13zm4.704,2.9c1.04-.506 1.838.985 2.17,0-1.133-.797-1.383-2.477-2.894-2.895-.48,2 1.748,1.29.724,2.9zm21.707,15.19c-.282-.08-.42-.304-.362-.724-1.251.286-1.527-.402-2.171-.724 .104,1 1.619,2.45 2.533,1.44z"></path>
	<path d="m98.947,243.85c-.968.107.961-1.403-.724-1.085-.686,3.779-1.789,9.94-3.618,13.748 .543-3.118 1.833-8.179 2.895-11.939-.265-.338-.658-.548-1.085-.724-1.121,2.309-.948,8.249-3.256,10.492 1.047-3.94 2.318-6.858 2.171-11.216 1.04.392 1.718.588 1.447-1.085 1.536-.84 2.773.205 4.703,0-.8,1.92-2.261-.63-2.533,1.81z"></path>
	<path d="m90.988,242.4c-.226,2.183-1.404,9.9-3.256,13.748-.409-4.95 3.238-9.025 1.447-13.024-.628,3.308-1.987,8.811-2.895,13.024-1.457-2.896 2.211-8.544 1.447-11.939-2.29,2.655-2,7.889-3.256,11.578-1.338-2.812 1.61-7.476 1.447-12.301-3.193,1.993-1.582,8.791-3.979,11.578-.404-3.221 1.674-6.978 1.809-10.854-.719.603-.46-.033-1.447,0-.776,2.323-.382,8.395-2.533,10.492 .401-3.546 1.741-7.785 1.447-10.854-2.092,2.13-1.241,7.201-2.533,10.131-1.371-2.234 1.058-6.56.724-10.131-2.083.905-1.514,7.015-2.533,10.131-1.942-2.36 1.455-7.077.362-9.769-1.997,1.976-1.33,5.08-1.809,7.598-4.715,24.8-7.209,51.084-11.215,77.062 9.477,6.465 10.465-7.734 12.301-16.28 3.969-18.479 9.067-39.006 13.387-57.164 .814-3.423.478-7.175 2.17-8.321-4.019,19.954-9.705,42.492-14.472,64.038-.927,4.189-2.247,9.37-2.895,13.387-.552,3.424-1.014,4.565-3.618,6.512-4.165,1.124-8.14-.339-9.769-4.341-.18-4.415.71-5.385.724-9.407 .475.128.569.637 1.085.724-.899-9.648 3.068-23.127 3.618-31.476 .834-.111.402,1.045 1.085,1.085 .252-1.217-.744-1.186-1.085-1.809 1.674-11.499 2.871-21.539 4.703-34.009 .368.234.374.832 1.085.724-.404-.445-.315-.743.362-.724-2.097-.355.152-5.44-.724-7.598-1.327,3.618-1.397,8.492-2.171,12.663-1.521-3.293 1.938-9.835.724-13.024-1.87,1.749-.291,6.945-2.533,8.321-.039-2.817 1.691-5.779.724-8.321-2.089,2.735-.631,9.018-2.894,11.577 .481-3.979.938-7.986 1.809-11.577-2.013,1.063-2.111,5.352-2.532,8.684-3.274,25.882-7.331,55.312-11.216,80.318 .593.854 2.487.406 3.256,1.085 .946.533-2.372-.045-2.895-.361-.92.768-.871,2.506-1.085,3.979-1.632-.331-1.862,1.937-2.895,1.085 .013-1.192 1.029-1.383 2.171-1.447 4.527-30.738 8.548-60.622 13.025-92.981-1.703-.688-4.155-.072-3.618-2.17-1.014.355.525.965-.362,1.447-1.472-.216-3.207-.17-3.256-1.809 1.17-.447.276,1.17 1.447.723 1.177-.509-2.337-1.224-1.085-1.809 12.483,2.411 23.386.941 37.627,1.447-.365.732-1.626,1.104-3.256,1.447 .443.708-.931,2.015-1.085,3.256-.607-1.49.158-3.64-1.084-4.35zm-4.704.36c.057.425-.062,1.027.362,1.085 .044-1.694.526.394 1.447,0 .045-.905.69-1.132-.362-1.447-.067.55-.874.34-1.447.37zm-11.939,2.54c-3.48,21.038-5.374,43.398-8.683,62.952-1.128,6.666-2.937,13.349-2.171,19.899 4.334-27.936 8.111-56.433 11.939-83.937h-1.085v1.09zm-7.597,48.12c.007-1.1 1.171-2.901.361-3.618-.007,1.1-1.171,2.9-.361,3.62zm-.363,3.98c-.51-1.35 1.446-3.29-.361-3.618 .226,1.1-.463,3.11.361,3.62z"></path>
	<path d="m111.97,243.49c2.103.916 2.362,6.802 3.256,10.13-1.53-2.94-1.58-7.35-3.26-10.13z"></path>
	<path d="m97.5,249.64c.987-.264.728.719 1.447.724 .196-1.281-1.281-.89-1.085-2.171 2.713.123.526-1.638 1.809-4.704 1.685,5.353-2.239,11.231-2.532,17.004-1.457-.181-.808-1.175-.362-2.171-1.803,1.701-.877-2.93.724-4.341-.192-2.05-.192-2.29-.001-4.34zm-1.085,7.96c.936.326 1.774-2.044.362-1.809 .147.87-.661.79-.362,1.81z"></path>
	<path d="m93.882,243.85c-.122,6.305-2.333,14.018-3.979,18.09 .814-6.15 2.673-11.59 3.979-18.09z"></path>
	<path d="m104.01,245.66c1.582,1.26 1.08,2.604 1.447,4.704-.85-1.07-1.05-2.46-1.45-4.7z"></path>
	<path d="m24.056,252.53c.415.584 1.42,1.146.724,1.809 .48-.731 2.419-1.092 3.256-.361-.123,1.178-2.968.83-3.618.361 1.106-.95-1.56-.76-.362-1.81z"></path>
	<path d="m136.94,254.7c.158-.536.464.144 1.086,0-.253,1.114-.253.695 0,1.81-1.49.05-.47-1.83-1.09-1.81z" fill="#fff"></path>
	<path d="m10.307,278.58c-.875,1.417.888,3.575-.724,3.256-.447,1.171 1.171.276.724,1.447-.584.103-.623-.342-1.085-.361 .201,1.157-1.424,5.906-2.533,6.874-.082.071-.618-.53-.724-.362-.057.092.879,2.455-.724,1.447 1.054,2.828-2.511,3.611-2.533,6.513-2.445-.307.35-4.015.724-3.618 .933-.087-.497-.622 0-1.447 1.375-2.229 5.827-8.098 6.15-11.939 .245-2.897-2.117-5.023-1.809-8.321 .171-1.136-.974-.955-1.085-1.809 .03-.573-.174-1.38.362-1.447-1.708-2.519-2.77-7.782-4.342-10.854 3.773-1.902 8.234-3.162 11.939-3.257-2.142,2.06-6.464,1.795-10.492,3.98 3.161,5.13 4.038,14.751 6.874,20.622-.154,1.01-1.136.02-.722-.72z"></path>
	<path d="m41.784,259.77c-1.165,4.638-5.604,7.104-6.875,13.024-.976.392-1.721-.887-2.17,1.086 .772.169.689-.517.724-1.086 1.077.848-1.679,5.341-2.895,5.065 1.062,1.243-1.107,1.572-.724,3.256h-1.447c-.133.616.282.683.724.724-.481.846-1.616,1.037-2.533,1.447 .63-2.022 2.361-2.945 2.895-5.064 .352.01.281.442.362.724 1.693-3.233 1.785-6.886 5.427-8.684-.579-2.738 3.314-6.978 5.427-9.406-.128.475-.637.568-.724,1.085 1.231-.1 1.023-1.63 1.809-2.17z"></path>
	<path d="m41.06,260.49c-.722-1.931-2.529-2.777-3.256-4.703 2.26.25 5.007,2.71 3.256,4.7z"></path>
	<path d="m35.633,260.49c-.355,3.266-3.723,6.646-5.065,10.131 .393-3.22 3.77-6.6 5.065-10.13z"></path>
	<path d="m94.244,263.39c.449-1.107 1.052-1.154 1.809-.361 .105-.98-.509-2.68 1.085-2.171-1.297,2.54-1.102,6.021-2.171,7.959-.613-1.229.774-3.558.362-5.788-1.929,3.032.139,7.8-1.447,11.938-1.115.271-.441-1.247-1.809-.724 .125.841.234,1.695 1.447,1.447-.625,1.907-.616,3.223-1.085,5.789-.738.727-.709-.16-1.447-.362-.737.508.355,1.247-.362,2.171 .697-.146.286-1.402 1.447-1.085-1.225,5.001-2.249,10.889-3.618,17.366-1.06,5.017-2.148,10.932-3.256,13.386-.193.43-.436.756-1.085.724 .09.394.72.246.724.724-.621,4.148-2.218,7.857-2.894,13.025-.986,7.536-4.485,14.801-3.618,20.983 1.084,7.728-3.079,15.119-9.407,17.366-2.021,4.854-3.954,9.795-5.427,15.195-1.423-.896.032-1.2 0-2.532-1.431-.159-1.47,2.58-.362,3.256-1.543,2.588-2.085,8.005-3.98,9.045-.023,1.906.065,3.925-1.447,4.342-.056-.9.568-1.12.724-1.809-2.636,1.259.367,2.474-1.085,5.064-1.122.509-.952-.68-2.171.362 .542-2.353 1.524-4.265 2.171-6.513 .393.09.245.72.723.724 .762-2.076.175-5.065 1.447-6.874 1.105.669-.417,1.719 0,2.895 1.888-.588-.322-3.025 1.809-3.256-.238-1.084-.773.346-1.447,0 .61-3.25 1.762-5.957 2.895-8.684 .352.01.281.443.362.724 .521-.082.126-1.08.724-1.085-.158-.537-.463.143-1.085,0 1.002-3.219 2.581-5.861 2.895-9.769-2.101,1.999-2.075,6.125-3.618,8.683-.51-2.445 1.273-5.717 2.171-7.959-.05-1.543-1.614.493-2.171-.724-.698,2.076-1.235,7.118-3.256,9.045 .19-3.429 1.969-5.268 2.171-8.684-.203-.817-.564.438-1.085-.361 .082-.521 1.08-.127 1.085-.724-.053-.808-.912.469-1.809,0 1.044,3.506-1.595,6.327-1.809,9.769-2.101-2.629 2.577-6.204 1.085-9.407-2.436,1.665-1.548,6.653-3.98,8.321 .097-3.526 3.159-6.685 1.447-9.769 .809-.994 2.342.253 3.618.362 4.508.384 8.937-1.803 12.663-4.342 .171,1.136-.974.956-1.085,1.809 .642.32 2.776-1.296 1.085-1.809 1.33-2.528 3.254-4.464 3.618-7.96 1.286-.562.219,1.229 1.085,1.086 1.133-.088.611-1.801-.724-1.447 .293-5.094-1.487-8.397.362-12.301-6.398-2.037-14.409-3.048-21.708-5.065 5.101-.519 11.346,1.931 17.004,3.256 2.176.51 4.62-.261 5.789,2.171 .293-.068.361-.362.724-.361-.678-1.493-2.122-2.221-3.979-2.533 .883-1.327 2.246,1.001 2.894,0 .066-.789-.296-1.15-1.085-1.085 .15-.814 1.984.054 1.809-1.085-.465-1.183-5.167-1.346-3.618-1.447 1.317-.112 2.354.058 3.256.361 2.138-4.978 2.512-11.719 4.342-17.004 1.331,1.194-.292,2.628-.362,4.341 1.547-.623 1.087-3.254 1.809-4.703-.327-.987-.809,1.101-1.447,0 4.075-18.29 8.688-37.21 12.298-53.94zm-.724,10.49c-.7-1.33.865-1.802 0-2.533-.366.65-1.385,2.22 0,2.53zm-2.532,6.15c1.129-.095 1.966-2.352 1.085-3.256 .125,1.57-.875,2.02-1.085,3.26zm-1.447,7.6c.838-.504 1.825-2.736 1.085-3.618-.153,1.19-1.426,3.13-1.085,3.62zm0,2.89c-.306-1.287 1.047-2.168-.362-2.533 .396,1.38-.957,2.26.362,2.53zm-1.086,2.53c-.979.795-.1,1.202-.724,2.171h1.085c-.445-.607.453-3.315-.724-2.532 .222.02.429.06.363.36zm-3.256,15.56c.151-1.374 1.711-5.021 1.809-7.96-.821,2.26-2.977,8.18-1.809,7.96zm-1.086,6.15c-1.395-1.06 1.775-4.062 0-4.342-.428,1.34-1.35,4.6 0,4.34zm-3.979,17.37c-.466-2.145 1.93-4.808.362-6.513 1.07,1.84-1.964,5.34-.362,6.51zm-.724,2.53c-.044-.603 1.172-2.303-.362-2.171 .208.64-.437,2.13.362,2.17zm-2.894,11.22c.47-1.716.911-2.293 1.085-3.618 .221-.021.428-.054.362-.361-1.292.28-1.993,3.05-1.447,3.98zm-1.809,12.3c.498-.016.794.171 1.085.362 .614-.776.884-2.435.362-3.618-.034.568.049,1.254-.724,1.085 .287,1.26-.402,1.53-.723,2.18zm-8.683,12.3c.272-1.571 1.278-2.057.724-3.256-.566.54-1.318,2.76-.724,3.26zm-9.045,26.77c.304-.42.477-.97.362-1.81-1.121-.14-1.473,1.74-.362,1.81z"></path>
	<path d="m31.653,261.58c-.817,2.317-2.054,4.217-2.895,6.512-.323-2.02 1.67-4.84 2.895-6.51z"></path>
	<path d="m139.11,261.94c1.114.641.603,1.53 1.086,2.171-.47.78-1.33-1.06-1.09-2.17z" fill="#fff"></path>
	<path d="m37.08,262.3c.97,1.585-1.506,2.825-1.809,4.341-.362-.98 1.368-2.96 1.809-4.34z"></path>
	<path d="m29.844,270.98c.571.479-1.058,1.816-1.085,2.895-1.065-.97.872-2 1.085-2.9z"></path>
	<path d="m140.55,271.35c.158-.536.463.144 1.086,0-.557,1.037.524,3.788 0,4.704-1.37-1.47.36-3.94-1.09-4.7z" fill="#fff"></path>
	<path d="m93.52,271.35c.865.731-.7,1.203 0,2.533-1.385-.31-.366-1.88 0-2.53z" fill="#fff"></path>
	<path d="m121.74,272.43c1.008,1.284.833,3.751 1.447,5.427-.76-.1-1.22-3.6-1.45-5.43z"></path>
	<path d="m30.93,273.16c.668.07-1.544,3.188-2.171,4.342-.498-1.24 1.703-2.87 2.171-4.34z"></path>
	<path d="m29.844,293.78c-.893,1.035 1.335,2.026 1.085,3.618-.475-.128-.569-.637-1.085-.724 .515,1.478 2.976,6.688-.362,8.321-.3-2.102.045-2.858-.362-5.065 1.934-.075.18,1.922.724,3.618 1.162-.959.279-2.562.724-3.618-.314-1.052-.542-.406-1.447-.361 .771-2.851-1.021-10.029.362-10.131-1.321-1.212-.968-4.097-2.533-5.064 .04-.684 1.196-.251 1.085-1.086 1.975,2.675 2.521,8.484 2.895,11.578-.537,1.17-.563-1.09-1.086-1.1z"></path>
	<path d="m90.626,284.01c.74.882-.248,3.114-1.085,3.618-.341-.49.932-2.43 1.085-3.62z" fill="#fff"></path>
	<path d="m124.63,285.46c1.785,4.139 3.283,12.375 3.618,15.558-1.46-4.93-2.55-10.23-3.62-15.56z"></path>
	<path d="m122.83,285.82c1.143,2.354 1.577,5.417 2.171,8.321-1.29-2.21-1.55-5.45-2.17-8.32z"></path>
	<path d="m143.09,286.9c1.435-.178.279,6.241.361,1.447-.28-.32-.39-.82-.36-1.45z" fill="#fff"></path>
	<path d="m88.093,292.69c1.176-.783.278,1.925.724,2.532h-1.085c.624-.969-.255-1.376.724-2.171 .065-.3-.142-.34-.363-.36z" fill="#fff"></path>
	<path d="m22.97,301.74h-1.085c.191.291.377.587.362,1.085 .337-.26.547-.66.723-1.08 1.43,2.853 1.22,5.106 2.532,7.959 2.6.491 2.001.029 3.98.724-6.479,2.567-7.787-8.086-8.683-12.301-.903.454-2.1-1.368-2.171-2.895 2.492,1.13 3.673,3.57 4.342,6.52z"></path>
	<path d="m17.181,314.4c.102.585-.342.623-.361,1.086 1.339-.186 2.136,1.674 2.532-.724-.753-.035-3.214-2.594-2.532-3.979-1.633-1.487-3.652-5.438-4.342-9.045 .9-.057 1.12.568 1.809.724 .718,5.07 3.316,8.261 5.427,11.938 2.332.322 4.911.396 6.15,1.81 .228-.591 2.743-2.941 4.704-2.533-.449,1.255-1.052.667-1.809,1.086 1.844,1.387-4.057,2.394-5.789,2.171-.791-.054-.777-.912-.724-1.81-.751.093-.099,1.59-.724,1.81-7.052-.804-10.82-1.488-16.643-3.98-2.411-5.7-6.769-8.881-3.979-15.557 .521-.193.883,1.41 1.085.361-1.782,5.658 1.696,13.46 6.874,15.558-1.461-2.658-3.224-6.479-4.703-10.13 4.96,2.202 3.314,13.04 12.301,12.301-.518-1.637-1.795-.78-3.256-1.81-1.212-2.165-2.12-4.633-3.256-6.874-.153-.756.248-.958.362-1.447-.81.206-1.321-1.079-2.17-1.809 5.215.58 2.971,9.73 9.044,10.85z"></path>
	<path d="m145.26,298.48c.795.407.795,1.402 0,1.81 .805.664 1.191,1.487.724,2.532-1.027.063.438-2.367-1.085-1.809 .13-1.29.97-1.32.36-2.53z" fill="#fff"></path>
	<path d="m87.008,300.65c-.098,2.938-1.658,6.586-1.809,7.96-1.168.22.988-5.7 1.809-7.96z" fill="#fff"></path>
	<path d="m128.98,304.63c.91.296.505,1.908 1.085,2.533-.19,2.59-.77-1.84-1.08-2.53z"></path>
	<path d="m130.06,308.61c.8,1.009.887,2.731 1.086,4.341 .26.66-1.37-2.61-1.09-4.34z"></path>
	<path d="m84.113,310.42c1.775.279-1.395,3.282 0,4.342-1.35.26-.428-3 0-4.34z" fill="#fff"></path>
	<path d="m30.206,311.51c.756-.153.958.247 1.447.361 .046.648-.443.763-.362,1.447-.616.133-.683-.282-.724-.724-.308-.066-.341.141-.362.361-.932-.1.498-.63.001-1.45z"></path>
	<path d="m131.15,314.76c1.254-.399 1.183,3.633 1.809,5.065-1.37-.92-.73-3.85-1.81-5.06z"></path>
	<path d="m80.496,325.62c1.568,1.705-.828,4.368-.362,6.513-1.602-1.17 1.432-4.67.362-6.51z" fill="#fff"></path>
	<path d="m56.255,327.79c.508-.62 2.762.383 4.341.724-.546,1.31-3.182-.37-4.341-.72z"></path>
	<path d="m141.64,334.3c-.233,1.822-5.693,1.539-7.96,2.532 .86-1.2 5.85-1.38 7.96-2.53z"></path>
	<path d="m139.11,337.92c.647.207-2.181.659-2.895.724-1.28.12.8-.83 2.89-.72z"></path>
	<path d="m77.963,341.9c.066.308-.141.341-.362.361-.174,1.325-.615,1.902-1.085,3.618-.546-.93.155-3.7 1.447-3.98z" fill="#fff"></path>
	<path d="m65.3,354.56c-1.884.687-.955,4.816-1.447,7.236-.802-1.001-.59-1.938-.362-3.256-.286-.8-1.266-.905-1.809-1.447-.035,1.062 1.281,4.012-.362,4.342 .239-1.733-.372-3.979 0-4.704-.054-.669-1.225-.222-1.447-.724-.374-.065 1.518,4.057-.362,4.342v-3.979c-.649-.046-.763.442-1.447.361-.299,1.299.816,1.751 0,2.533-.462-2.265-4.393-7.74-1.809-10.492-.607,2.293.642,4.156 1.085,5.788 3.054-.28 4.018,1.53 5.789,2.533-1.704-1.938 1.279-3.521 2.895-4.342-.053-2.238-.569-4.015-1.085-5.789-2.681-1.895-5.904-.42-8.683,1.81 .696-1.957 2.801-2.506 3.979-3.979 2.574.079 4.377.929 6.15,1.809 1.338,3.485 1.747,7.901 1.809,12.663-1.646-1.571-.243-4.021-1.085-6.151-.247.718-2.155-.226-1.809,1.086 .569,1.323.541-.841 1.447-.362-1.438,1.188-.208,4.963-.724,6.151-1.357-1.58.043-3.42-.723-5.43z"></path>
	<path d="m145.98,361.07c-1.213-.644.051-2.424-.361-4.342h-1.085c-.876.934.065,3.685-.724,4.704-.831-.738-.132-3.005-.362-4.342-1.442-.236-1.036,1.375-1.085,2.532-1.216.372-.563-1.125-.724-1.809-2.548.226-3.639-3.729-6.513-4.342 .83-4.958 3.306-8.272 9.045-8.321 1.421,1.595 2.876,3.153 4.703,4.342-1.22,1.713-.158,4.438-.724,6.15-.784.061-.164-1.283-.361-1.81-1.49,1.56-1.36,4.7-1.84,7.24zm-7.6-13.75c-.493,1.918-1.741,3.082-1.809,5.427 1.512,1.142 2.5,2.807 4.342,3.618 .604-1.688 3.141-1.442 5.064-1.81-.93-1.688 1.089-2.17.724-4.341-.798-1.373-2.324-2.018-2.894-3.618-2.17-.13-3.24.85-5.42.72z"></path>
	<path d="m75.43,356.01c.772.169.689-.517.724-1.085 .522,1.184.252,2.842-.362,3.618-.291-.191-.587-.378-1.085-.362 .321-.65 1.01-.92.723-2.17z" fill="#fff"></path>
	<path d="m46.487,371.92c.432,2.607-1.725,5.749-2.171,8.684-.555-2.72 1.776-5.69 2.171-8.68z"></path>
	<path d="m60.958,376.27c.505,1.998-.396,4.558-1.085,6.513-5.037,14.285-11.18,29.431-16.643,44.862 5.027-16.56 12.216-34.09 17.728-51.37z"></path>
	<path d="m157.92,379.16c.773,1.156 1.246,2.612 1.447,4.342-.91-1.02-1.09-2.77-1.45-4.34z"></path>
	<path d="m145.98,383.14c2.362,4.392 3.57,9.938 5.428,14.834-2.48-4.27-3.66-9.85-5.43-14.83z"></path>
	<path d="m164.07,385.31c2.14,1.1 1.24,4.68 0,0z" fill="#fff"></path>
	<path d="m42.145,386.04c.383,1.357-1.379,3.679-1.447,5.789-.657-1.64 1.052-4.01 1.447-5.79z"></path>
	<path d="m160.09,386.04c1.008.681.825,2.552 1.447,3.618-.62.36-1.26-2.35-1.45-3.62z"></path>
	<path d="m151.41,398.34c5.545,15.079 11.938,31.234 16.643,45.948-5.88-14.99-11.66-30.07-16.64-45.95z"></path>
	<path d="m37.08,401.59c1.202.654-2.172,5.794-.724,1.446 .105-.31.778-.39.724-1.45z"></path>
	<path d="m35.271,407.02c.868.892-.671,2.446-.724,3.617-.749.47.578-2.64.724-3.62z"></path>
	<path d="m34.909,416.43c.616.58-1.18,4.787-1.809,6.513-.539-1.88 1.426-4.36 1.809-6.51z"></path>
	<path d="m43.954,417.87c.843.75-.868,2.006-.724,3.256-.954-.86.651-2.23.724-3.26z"></path>
	<path d="m35.633,421.85c.126,3.386-2.401,7.244-3.256,10.854-.078-3.33 2.515-7.12 3.256-10.85z"></path>
	<path d="m29.844,423.66c.742-.479-.682,2.531-.724,3.617-1.172-1.2.605-2.51.724-3.62z"></path>
	<path d="m35.271,430.54c-.591-1.327 1.066-3.509 1.447-5.065 .655.05-1.172,3.55-1.447,5.06z"></path>
	<path d="m31.653,425.83c.648,1.026-1.071,2.775-1.085,4.341-.871-1.25.867-2.98 1.085-4.34z"></path>
	<path d="m49.02,437.77c.968-.557.939.706 1.447,1.81h-1.809c-.602-1.14 1.345-1.48.362-1.81z"></path>
	<path d="m20.799,438.5c1.667,1.589 3.592,2.92 5.065,4.704-2.216-1.04-4.43-2.08-5.065-4.7z"></path>
	<path d="m176.01,440.3c.926.642.812,2.323 1.447,3.256-.52.38-1.29-2.08-1.45-3.26z"></path>
	<path d="m164.43,453.33c-1.396-1.264-.171.854-1.81.361-.765-3.179 2.245-4.411 4.342-5.788 .359,1.328 1.206,2.17 1.447,3.617-.466.499-1.571.358-2.532.362 .101.743.966.722 1.447,1.085-2.493,1.03-.63-1.267-3.618-1.447 .285,1.042 1.641,1.014 1.447,2.533 9.332-1.04 12.946-7.796 19.537-11.577 3.08,2.989 4.111,5.708 7.235,7.959 5.204,3.75 12.642,2.917 18.451,5.427 1.542.666 2.027,1.561 5.789,1.086 7.199-.909 14.779-6.162 21.346-.724-6.188,12.317-19.736,19.155-36.902,21.346-4.564.582-8.521,1.657-12.663,2.532-4.349.919-10.547,1.959-14.11,1.086-6.375-1.563-5.521-11.072-4.703-16.643-.052-1.396-1.223-1.672-1.085-3.257 3.999,1.265 9.809,1.438 13.386-.361-3.601-.691-7.041,1.124-10.492,0-3.445-1.122-3.899-4.672-6.512-6.513-.535.419-.912.419-1.447,0 .01-.61 1.51.41 1.41-1.09zm19.54-4.7c1.735.167 2.838-.297 2.894-1.81-.247-1.079-1.44-1.213-2.894-1.085-.1.75-.58,1.84 0,2.89zm6.51,5.06c-.498-1.095.172-1.292 0-2.894-.462-.021-.501-.464-1.085-.362-1.01.65-1.15,3.78 1.08,3.25zm2.9,1.09c0,1.688.844,2.532 2.532,2.532 .893-.738-1.207-1.479 0-2.532-.74-.19-1.48-.59-2.53,0zm6.87,3.25c.804.281 1.411.76 2.532.724-.07-1.634-.909-.809-.361-2.532-1.09.24-2.09.57-2.17,1.81zm6.51,1.45c1.367-.523.694.994 1.809.724 .775-.882-.26-2.146-.724-2.895h-1.085v2.18zm7.24,4.34c1.81-.965 2.118-3.43 2.895-5.427-2.53.26-1.95,3.61-2.9,5.43zm-28.22,10.13c-2.26-3.408-5.526-5.81-11.216-5.789 4.24,1.43 7.9,3.44 11.22,5.79z" fill="#fff"></path>
	<path d="m168.77,446.09c1.007.682.824,2.552 1.446,3.618-.57.31-1.5-2.1-1.45-3.62z"></path>
	<path d="m91.349,75.977v-8.683c1.72-.983 3.497-1.953 5.065-2.895 3.921-2.353 5.791.612 10.492,2.895-.853,3.083.082,5.746-.362,9.045-2.499,1.24-4.998,2.479-6.875,4.341-3.278-1.161-5.215-2.784-8.326-4.703zm3.618-6.15c-1.944,3.971 3.084,8.15 5.065,5.789 .351.614 1,.93 2.171.724 3.98-6.117-3.043-11.59-7.233-6.513z" fill="#fff"></path>
	<path d="m143.81,346.6c.569,1.601 2.096,2.245 2.894,3.618 .365,2.171-1.653,2.653-.724,4.341-1.924.367-4.461.121-5.064,1.81-1.842-.812-2.83-2.477-4.342-3.618 .067-2.345 1.315-3.509 1.809-5.427 2.17.13 3.24-.85 5.42-.72z" fill="#fff"></path>
	<path d="m43.954,442.84c-1.431,1.181.118,1.209.362,2.532-1.72-.088-3-.617-2.894-2.532 .92-.64 1.764-.93 2.532,0z"></path>
	<path d="m183.97,445.73c1.453-.128 2.646.006 2.894,1.085-.056,1.513-1.158,1.977-2.894,1.81-.58-1.05-.1-2.14 0-2.9z"></path>
	<path d="m45.401,456.58c1.255-.29 1.391.539 2.533.362 .137,1.223-.627,1.543-1.085,2.171-1.061-.51-2.034-1.33-1.448-2.53z"></path>
</g>
</svg>
